<svg xmlns="http://www.w3.org/2000/svg" xmlns:xlink="http://www.w3.org/1999/xlink" width="1000" height="1000" viewBox="0 0 1200 1200">
  <defs/>
  <path fill="#1d191a" d="M0 600V0h1200v1200H0V600z"/>
  <g fill="#161d25">
    <path d="M0 600V0h1200v1200H0V600zm621 356a397 397 0 0151-20l72-26 6-1 41 20 44 21c23 6 54-9 90-44 52-53 66-104 36-132-12-11-30-19-55-23l-13-2-1-2 2-8c1-6 1-6 5-6l11-5c19-10 37-33 45-59 8-23 8-53 1-72l-4-16c-6-24-11-36-19-43l-5-5 1-5c0-7-2-13-6-16-3-2-4-3-19-2h-16v-3c1-5-1-10-5-14-3-3-3-3-13-3h-9v-18a177 177 0 00-13-75c0-1 2-2 7-3 49-9 75-54 62-107-12-46-51-84-98-96-11-2-33-2-44 1-30 8-52 32-57 65l-1 8-6-2a306 306 0 00-228 2l-1-7c-1-8-5-20-10-29-4-9-19-24-27-29-17-10-39-13-60-10-26 5-49 18-69 39-25 25-38 58-37 89 2 39 26 68 63 76l9 2-3 9c-6 20-9 39-9 62v18h-9c-7-1-9 0-12 1-4 3-7 9-7 15 0 4 0 5-2 5l-14-2c-14 0-18 1-22 7-2 3-2 4-1 14l-1 11c-2 0-10 9-13 15-10 15-18 49-20 75-1 25 7 53 21 74a86 86 0 0046 34l3 14-8 2c-49 7-73 25-77 54-3 28 16 66 52 102 21 21 42 36 62 43 7 2 19 3 26 1l26-12 44-21 24-12 7 3 81 29 8 6c15 13 44 19 68 13zm-37-12c-8-1-17-4-21-8l-2-164 1-166c1-4 4-4 14 0 14 5 35 6 49 1l9-2h3l1 164-2 167c-3 3-11 7-18 8-8 2-24 2-34 0zm40-36c2-2 2-7-1-9-1-2-3-2-22-2h-21l-2 3c-2 3-2 3-1 6l4 3 22 1 21-2zm-1-22c2-2 3-7 1-10l-23-1-23 1c-2 3-2 6 0 8l2 3h21l22-1zm1-23c1-2 1-8-1-9-1-2-4-2-21-2l-22 1c-3 0-4 4-3 8l2 3h22l23-1zm-281 73c-29-7-78-53-97-92-8-15-9-20-9-32-1-9 0-11 2-16 4-7 10-13 18-16 8-4 22-3 31 0 9 4 19 11 29 20l8 9 4 16 6 19 14 8 12 6 4 9c16 34 16 59 1 67-6 2-15 3-23 2zm-4-20c6-2 11-8 12-15 2-11-4-31-14-45-6-7-11-11-18-14-12-5-25-1-35 9-12 14-11 25 4 41 17 19 37 28 51 24zm-64-58c5-3 7-11 5-18-1-1 0-2 2-3 3 0 8-4 8-6l3 1c5 4 11 4 15 0 11-11 6-33-8-33-4 0-8 4-11 9l-1 4-4-3c-7-7-15-9-21-6-6 4-8 14-4 22l2 4h-3c-4 1-8 5-9 9-2 7 2 15 11 19 3 2 11 2 15 0zm565 78c-19-4-23-23-12-54 6-17 6-17 21-24 8-4 15-8 16-10l9-33c1-8 1-8 8-14 19-18 35-25 51-23 22 3 33 19 30 40-5 29-35 71-70 97-23 17-39 24-53 21zm41-23c14-5 32-20 39-32 5-8 5-15 1-22-10-17-26-23-42-16-12 5-26 24-29 42-2 8-2 10-1 17 1 6 6 11 11 13 5 1 15 0 21-2zm59-57c9-4 13-13 9-20-1-4-5-7-9-7l1-8c3-6 2-11-2-16-3-3-4-3-9-3-6 0-10 2-15 7l-4 3v-3l-5-6c-2-3-4-4-7-4-8 0-13 6-13 17 0 15 11 24 20 17 3-3 4-4 4-2s5 6 8 6 3 1 1 4c-4 8 3 18 13 18l8-3zm-44-27c-3-1-6-7-6-13 0-9 6-15 12-12 7 6 9 19 2 25-3 2-4 2-8 0zm-248-62l-1-165 4-4a392 392 0 0175-33l46-15 16-5 7-2 4-1a20 20 0 005-1 164 164 0 0124-6l14-3 15-3c8-3 56-7 58-5l-2 14-2 17-1 5-7 1c-13 1-27 7-38 19a109 109 0 00-27 46 118 118 0 00-5 41l2 14c1 8 7 20 12 28 6 10 19 18 29 20 5 0 7 2 5 5a354 354 0 00-9 46l-10 44-2 9-2 9-19 10-25 14-9 4-6 3-9 4-5 2a237 237 0 00-20 8l-10 4-12 5-26 9 1 1-1 1c-1-1-11 2-12 3l-10 4-10 3-7 3-7 2-10 4a59 59 0 00-12 4l-1-163zm78-82a548 548 0 01100-30c3-2-5-1-29 5l-40 11-7 2c-6 1-30 11-30 13l6-1zm0-24l21-8 22-7 7-2 41-10 9-3c2-2-4-1-10 0l-27 8a384 384 0 00-69 23c0 1 1 1 6-1zm-2-24a95 95 0 0116-6l9-3 15-4 11-3 31-9 9-2 6-1c4-1 7-3 5-3-1-1-13 2-21 4l-8 2a504 504 0 00-76 27l3-2zM550 924l-3-1a195 195 0 01-25-8l-19-7a172 172 0 01-19-7l-8-3-7-2-7-3-3-1-5-2-5-2-7-3-3-1-6-2a203 203 0 00-11-5 497 497 0 01-79-40l-4-11-5-21a1096 1096 0 01-12-57l-3-14c-1-4-1-5 6-6s14-5 22-13c10-10 16-22 18-37 1-9 1-30-1-39l-1-11-2-4-2-7c-10-30-39-56-62-56h-7l-1-4-4-35v-3h10l22 2 15 2a302 302 0 0157 11l3 1 2 1h1l9 3a46 46 0 0112 3h2l7 3 8 2 2 1 9 3 10 3a153 153 0 017 2l4 1 12 5a86 86 0 0115 6c8 2 56 25 61 28 2 2 2 2 1 5-2 3-2 18-2 163l-1 160h-1zm-164-3c3-9 0-28-6-45l-4-9 12 6c6 3 21 10 33 14l21 9-12 6-21 10-16 8-8 4 1-3z"/>
    <path d="M788 911l-25-12 15-6 29-13 14-7-3 8c-5 13-7 27-5 36l1 7-26-13zM318 788a102 102 0 00-32-20c0-1 17-4 24-4h5l3 13 3 13-3-2zm562 0l1-7 3-12 1-6h5c12 2 24 4 23 5l-6 3a150 150 0 00-27 17zm-575-69c-9-3-15-7-24-16-10-9-16-19-21-32-8-22-10-42-4-69 5-27 12-43 19-50l3-3v2l2 9v7l-4 4-5 7c-1 2-1 2 4-1 15-11 39-6 55 11 10 11 16 22 22 39 7 25 6 49-3 69-9 18-27 27-44 23zm572 0c-15-4-27-19-32-39-3-9-3-29-1-42 8-41 33-68 63-67 8 1 15 3 20 8 4 3 4 3 3 1-2-6-5-11-8-13-2-2-2-3-2-7l2-8v-3l3 2c5 6 16 34 16 44l1 7c4 8 5 17 5 29 0 13-1 22-6 35-12 35-40 59-64 53zM582 602c-8-2-8-2-22-11-11-8-36-21-53-28a882 882 0 00-180-52l-1-6-1-6h7a354 354 0 01130 32c18 7 74 35 99 49 16 8 16 8 24 9l24-1 15-1 11-6 63-34c51-24 112-40 163-43h13v5l-1 6-14 4a827 827 0 00-228 79c-16 6-34 8-49 4zm0-21l-12-6a665 665 0 00-94-51l6-4c24-11 44-33 56-62 7-15 9-26 10-41 0-21-3-33-12-43-7-8-13-9-30-9-11 0-15 0-22 2-24 6-45 18-62 34-30 28-40 64-27 94a497 497 0 00-42-6v-35a201 201 0 0167-132 266 266 0 01175-66 258 258 0 01220 108 177 177 0 0131 112c0 19 0 19-6 20l-38 6c-2 0-2 0 1-4 9-16 9-39 1-60a130 130 0 00-108-74c-24-1-34 6-42 27-2 7-2 9-2 22 0 12 0 15 2 25 7 24 19 46 36 63 9 9 18 15 28 20 7 2 8 3 6 4l-38 17c-16 7-34 17-50 28-12 8-15 10-21 11h-33zm0-74c6-1 12-6 15-10l3-4 2 3c8 15 36 17 48 3 5-6 6-13 2-14-2-1-5 2-5 4 0 4-2 6-7 9-4 2-6 3-13 3-8 0-9-1-13-3-5-4-10-12-10-19l-1-4 6-1 11-4c7-4 19-15 20-19 2-8-14-13-41-13-23 0-38 4-39 10-1 8 18 23 32 26 4 0 4 1 4 3 0 5-3 13-7 17-4 5-10 7-19 7-10-1-16-5-18-12-1-6-7-6-7 0 0 8 7 15 17 18 7 2 13 3 20 1zm6-58c-11-4 4-9 18-7 15 3 10 8-7 8l-11-1zm-93-17c-8-4-11-13-9-21 3-8 9-12 17-12 16 0 23 19 11 30-5 5-12 6-19 3zm194 0c-6-3-9-8-9-15s2-11 6-14c4-4 7-4 13-4 15 2 20 22 8 32-5 3-12 4-18 1z"/>
    <use xlink:href="#B"/>
    <path d="M295 301c2-21 15-46 33-64 15-14 31-24 49-30 12-3 30-4 42-1 28 6 47 30 49 60v11l-3 1a289 289 0 00-23 13v-6c0-8-3-20-7-27-6-11-19-21-33-25-8-3-25-3-34-1a105 105 0 00-73 70v-1zm609-2l-6-12c-10-20-27-37-46-47-13-6-23-9-36-9a55 55 0 00-59 53v7l-8-5-13-8-5-2v-9c2-20 7-32 20-45 13-14 27-19 50-18 15 1 25 3 38 9 22 11 45 33 56 56 4 7 8 21 9 28v2z"/>
  </g>
  <g fill="#3a3535">
    <path d="M0 600V0h1200v1200H0V600zm612 358c10-1 21-5 28-9l23-10a3730 3730 0 0087-30 2827 2827 0 0185 41c22 6 52-8 86-41 15-14 24-24 33-39 28-41 30-75 7-96-12-12-29-19-56-23-11-2-13-3-13-4l2-8c1-6 1-6 5-6 7-2 19-9 28-18 17-16 28-37 33-63 3-17 1-40-4-54l-5-18c-6-24-10-35-18-42l-5-5v-6c1-5 1-6-1-10-4-7-7-8-24-8l-15 1v-3c1-5-1-11-5-14-3-3-4-3-13-3h-9v-18a186 186 0 00-13-77l9-1c29-6 52-27 60-55 12-44-10-97-53-127-33-24-75-30-105-14a77 77 0 00-41 59l-2 8-5-2a306 306 0 00-228 2l-1-7c-1-9-4-19-9-29-5-9-19-23-28-29-7-4-20-9-29-10-26-4-56 4-81 22-11 7-26 23-34 34-42 61-21 135 41 148l9 2-3 9c-6 20-9 38-9 62l-1 18h-8c-7-1-9 0-12 1-4 3-7 9-7 15l-1 5-15-2c-14 0-18 1-22 7-2 3-2 4-2 14v11c-2 0-10 9-14 15-7 12-12 28-16 55l-3 25c0 24 8 49 21 69a86 86 0 0046 34l3 14-8 2c-44 6-68 21-75 45-3 10-3 24 0 35 7 24 24 50 49 75 30 30 57 46 78 46 9 0 14-2 37-13l44-21 23-12 4 2a2810 2810 0 0092 35 78 78 0 0060 16zm-269-22c-29-7-78-53-97-91-8-16-9-21-9-33-1-9 0-11 2-16 7-14 24-21 40-18 12 2 28 12 41 25l6 6 4 16 4 18 14 9 13 6 4 9c16 34 16 59 1 67-6 2-15 3-23 2zm0-21c10-7 11-25 2-44-12-25-29-36-48-29-11 4-21 18-21 28 0 14 26 39 47 46 6 1 16 1 20-1zm-68-57c5-3 7-11 5-18-1-1 0-2 2-3 3 0 8-4 8-6l3 1c5 4 11 4 15 0 11-11 6-33-7-33-5 0-10 5-12 10l-1 3-4-3c-7-7-15-9-21-6-6 4-8 14-4 22l2 4h-3c-4 1-8 5-9 9-2 7 2 15 11 19 3 2 11 2 15 0zm46 52c-16-5-37-25-41-37-1-3-1-4 1-9 8-16 25-23 39-16 10 5 21 20 25 35l2 12c0 8-2 13-7 16-4 2-13 1-19-1zm-60-57c-5-3-8-7-8-12 1-4 1-5 4-6 4-2 5-2 8-1 5 1 11 6 12 10 2 8-7 14-16 9zm10-22c-13-8-14-24-1-24 12 0 21 15 15 23-2 2-3 3-7 3l-7-2zm24-3c-6-6-4-19 3-23 3-2 3-2 6-1 3 2 6 7 5 13 0 5-1 8-4 12-3 3-7 3-10-1zm545 108c-8-2-14-6-16-14-2-6-2-21 1-31 4-12 9-24 11-26l15-8 14-9 9-35c1-6 2-6 8-12 20-19 35-25 51-23 17 2 27 11 30 26 6 26-27 79-70 111-23 17-39 24-53 21zm41-23c14-5 31-20 39-32 6-11 5-19-5-30a31 31 0 00-38-8l-17 16c-6 10-12 26-12 36 0 9 4 16 10 19s15 2 23-1zm59-56c13-6 15-22 3-27-3-2-4-2-3-4 4-10 4-15-2-21-2-3-3-3-8-3-6 0-11 2-15 6-3 4-4 4-4 1l-5-6c-2-3-4-4-7-4-8 0-13 6-13 17 0 15 11 24 20 17 3-3 4-4 4-2s5 6 8 6 3 1 1 4c-4 8 3 18 12 18l9-2zm-81 53l-4-5c-8-15 6-48 24-58l12-3c7 0 8 1 13 4 10 6 16 15 15 23-2 12-16 26-35 36-7 3-10 3-15 4l-10-1zm67-57c-8-6 0-20 12-20 3 0 9 5 9 8s-3 8-7 10c-4 3-11 4-14 2zm-11-23c-4-3-4-7-1-13 2-5 7-9 12-10 5-2 10 0 12 5 3 8-7 21-17 21l-6-3zm-19-1c-3-1-6-8-6-13 0-9 6-15 12-12 8 6 8 20 1 25-3 2-4 2-7 0zm-248-61l-1-165v-3l21-10a725 725 0 01246-67v7l-2 15c-2 17-1 15-9 16-28 0-56 29-67 68-11 42 1 83 29 96l11 5 5 1-2 12-5 23-16 72-2 4-20 11c-27 15-41 21-63 30l-71 27-14 5-40 14V768zm77-82c12-6 41-15 98-29 4-1 6-4 2-4s-59 15-80 22-27 9-25 12c0 1 1 1 5-1zm0-24c10-5 66-22 98-29 4-1 6-4 2-4a1148 1148 0 00-106 33l2 2 4-2zm2-25c12-5 47-16 83-25l17-4v-2c-1-2-5-1-24 4-51 13-83 24-84 28 0 2 2 1 8-1zM538 920l-54-20-16-5c-41-15-67-27-99-44l-26-13-1-6-4-16-6-25-11-48-1-11c-1-2 0-2 3-2 8-2 17-7 24-14 8-8 13-17 17-29 2-9 2-11 2-27s0-19-2-28c-8-31-25-55-47-66-9-4-20-7-24-5h-3l-4-31c-2-12-2-11 8-11a621 621 0 01238 67c20 9 23 11 22 13-3 9-3 2-3 167v158l-13-4zm250-9l-25-12 14-6 28-12 16-8-3 9c-5 12-7 26-5 35l1 7-26-13zm-402-1c0-14-1-22-7-37l-3-6 12 6c6 3 21 10 33 14l21 9-28 14-27 13-1-13zm-67-122a104 104 0 00-33-20c0-1 17-4 24-4h5l3 13 2 13-1-2z"/>
    <path d="M880 788l1-7 3-12 1-6 5 1 24 4-7 3a129 129 0 00-27 17zm-575-69c-9-3-15-7-24-16a99 99 0 01-28-72c0-29 12-70 23-80 2-2 2-2 2 0l2 9v7l-4 4-5 7c-1 2 0 1 5-2 7-4 11-5 19-5 12 0 26 6 35 17a104 104 0 0126 70c0 17-1 25-7 37-9 19-27 28-44 24zm571 0c-13-4-23-14-29-31-3-10-4-15-4-29 0-30 9-56 27-73 17-17 43-20 57-7 4 3 4 3 3 1-2-6-4-10-7-13l-3-3 1-7 1-8c1-1 7 7 10 14 4 9 9 27 9 32l1 6c6 14 7 41 2 57-10 33-28 55-50 61h-18zM582 602c-8-2-8-2-22-11-18-12-47-27-77-38-48-18-120-37-150-41-7 0-7 0-8-8v-5h7a354 354 0 01130 32c18 7 72 34 98 48 17 9 17 9 25 10l24-1 16-1 7-4c14-9 52-29 65-36 51-23 113-40 164-43h13v5c0 6-1 8-9 9a816 816 0 00-234 80c-16 6-34 8-49 4zm0-21l-13-7c-22-15-64-38-87-48l-6-3 6-3c24-10 44-33 56-62 7-15 9-26 10-42 0-20-3-32-12-42-6-8-13-10-29-10-15 0-22 2-38 8-29 10-55 31-68 55-9 15-13 34-11 48l5 20h-8a497 497 0 00-33-6l-2-13a196 196 0 0135-118c47-64 125-102 213-102 37 0 70 6 103 19 34 14 63 33 88 59 17 17 26 30 37 52 14 29 20 58 19 90-1 19-1 19-7 20l-38 6c-1 0-1-1 2-7 10-21 7-49-9-74-21-32-66-57-103-57-20 0-30 7-37 24-12 31 3 81 34 112 10 10 18 16 29 21 7 2 8 3 7 4-5 1-31 13-40 17l-49 28c-13 8-15 10-21 11h-33zm-1-73c7-2 12-6 16-11l3-4 2 4c9 13 30 16 44 6 7-4 11-14 7-17l-2-2c-2 0-4 3-4 5 0 4-2 6-7 9-4 2-6 3-13 3-8 0-9-1-13-3-5-4-10-12-10-19l-1-4 6-1 11-4c7-4 19-15 20-19 2-8-14-13-41-13-23 0-38 4-39 10-1 8 18 24 32 26 4 0 4 1 4 3 0 5-3 13-7 17-5 5-10 7-19 7-10-1-17-5-18-12-1-6-7-6-7 0 0 13 20 24 36 19zm7-59l-3-3c0-4 12-6 21-4 15 3 10 8-7 8l-11-1zm-93-17c-5-3-7-6-9-12-2-7 2-16 10-20 3-2 11-1 15 1 7 3 11 14 8 21-4 10-14 15-24 10zm194 0c-6-3-9-8-9-15 0-11 6-18 17-18 12 0 20 13 15 24-4 9-14 13-23 9zM294 304l5-22c12-34 43-64 78-75 12-3 30-4 41-2 29 7 48 31 50 61v11l-3 1a289 289 0 00-23 13v-6c0-8-3-20-7-27s-13-16-21-20c-10-6-17-7-29-7-16 0-30 4-45 13-10 7-24 20-31 29a116 116 0 00-15 31z"/>
    <use xlink:href="#C"/>
    <path d="M902 295c-9-23-28-44-51-55-12-6-23-9-35-9-18 0-32 5-42 15a57 57 0 00-17 37v8l-8-5-13-8-5-2v-9c2-20 7-32 20-45 13-14 27-19 50-18 12 1 15 1 24 4 18 6 32 15 47 29a111 111 0 0133 65l-3-7z"/>
  </g>
  <path fill="#254254" d="M588 945c-13-2-24-7-26-11l-1-164 2-165 2-2 6 2c11 4 16 5 26 6 10 0 20-1 34-5 8-2 7-18 7 164v163l-4 4c-4 4-11 7-21 8s-15 1-26-1zm36-37c2-1 3-7 0-9-1-2-3-2-23-2-24 0-25 0-25 7 0 6 2 6 25 6 17 0 21 0 23-2zm0-23c3-2 3-8 0-9-2-2-6-2-23-2-20 0-21 0-23 2s-3 7 0 9c1 2 3 2 23 2 18 0 22 0 23-2zm0-22c3-3 3-7 0-10-2-1-4-2-23-2s-21 1-23 2c-3 3-3 7 0 10 2 2 3 2 23 2s21 0 23-2zm24-96V602a710 710 0 01258-78h9l-1 4-1 10-1 12c-2 11-1 11-9 11-28 0-56 29-66 68-12 42 1 83 28 96l12 5 4 2-2 11-5 24-16 71-2 4-20 11c-27 15-41 21-63 30l-70 27-14 5-41 14V767zm77-81c12-6 41-15 98-29 4-1 5-4 2-4-4 0-59 15-81 22-21 7-26 9-25 12 1 1 1 1 6-1zm0-24c10-5 66-22 97-29 5-1 7-4 3-4a1148 1148 0 00-106 33l2 2 4-2zm2-25c12-5 47-16 83-25l17-4v-2c-1-2-5-1-24 4-51 13-83 24-84 28 0 2 2 1 8-1zM538 920l-54-20-16-5c-41-15-67-27-99-44l-26-13-1-6-4-16-6-25-11-48-1-11c-1-2 0-2 3-2 8-2 17-7 24-14 8-8 13-17 17-29 2-9 2-11 2-27s0-19-2-28c-8-31-25-55-47-66-9-4-20-7-24-5h-3l-4-31c-2-12-2-11 8-11a722 722 0 01260 78c1 1 1 2-1 6l-2 5v316l-13-4z"/>
  <g fill="#494544">
    <path d="M0 600V0h1200v1200H0V600zm613 358c9-1 19-5 26-9l25-10 66-23 19-7 42 20 45 21c21 5 48-6 81-36 29-27 51-59 58-85 2-8 3-22 1-29-3-13-13-27-24-34-12-7-31-13-52-16-7-1-8-2-8-3l2-7 3-7c14-4 22-10 31-18 28-28 41-76 30-113l-6-22c-6-24-12-37-20-43l-4-4 1-6c0-6 0-7-2-10-4-7-7-8-24-8l-15 1 1-3c0-5-2-11-6-14s-4-3-13-3h-9v-18l-1-28c-1-11-6-30-9-41l-3-8h2l11-2c45-11 69-58 56-107a134 134 0 00-105-96c-10-2-29-1-38 2-29 8-50 32-56 63l-1 10-8-3a299 299 0 00-226 2l-1-7a79 79 0 00-80-68c-29 0-58 13-82 35-28 28-42 61-41 94 1 14 3 22 9 35 5 9 6 11 14 19 7 7 11 11 18 14 8 4 18 7 26 8l5 2-2 7c-7 21-10 39-10 63v19h-9c-7-1-9 0-12 1-5 3-7 8-7 14v6l-7-1c-20-2-26-1-31 6-2 3-2 4-2 14l1 11-3 1c-10 5-21 29-26 56l-3 15-2 18c-1 27 6 52 21 74 10 15 24 26 38 31l8 3 3 14-13 3c-27 4-46 12-57 23-18 18-20 44-6 74 12 24 32 50 57 71s46 32 64 32c11 0 8 1 72-30l31-15 29 10 30 11 18 6c14 5 17 6 21 10 12 11 38 18 58 15zm-268-22c-25-5-66-40-89-75-20-29-25-51-15-68 5-8 13-13 25-15 16-3 32 5 51 22 9 9 8 8 13 28 2 11 4 15 6 16l13 8 12 7 4 8c10 21 14 43 10 55-3 11-16 17-30 14zm-3-21l7-7c7-12-1-40-16-56-14-15-32-16-46-3-9 8-13 18-11 26 4 12 24 32 40 38 10 5 19 5 26 2zm-66-58c5-3 6-11 4-17-1-1 0-2 2-3l6-3 3-3 3 2c8 6 19-1 20-14 1-16-11-25-20-17l-5 6-1 4-4-4c-8-8-20-8-26 0-2 3-2 11 1 17l2 4h-4c-7 2-11 10-8 18 5 11 18 16 27 10zm47 54c-14-5-31-18-40-32-4-6-4-12 0-18 9-15 24-20 37-13 8 4 15 12 21 23 4 11 6 17 6 24s-2 12-5 14c-3 3-14 4-19 2zm-62-58c-7-3-11-12-6-17s17-1 20 6c3 4 2 7-1 10-3 4-7 4-13 1zm8-23c-8-6-11-15-6-21 2-2 3-2 7-2 12 0 22 16 14 24-3 3-9 3-15-1zm26-1c-4-5-5-14-1-21 3-5 11-5 14 0 3 7 1 18-4 21-3 3-6 2-9 0zm546 107c-21-4-24-26-9-63l3-8 14-7 16-10 6-22 5-20 7-6c8-8 22-17 30-20 4-2 8-2 15-2 17 0 29 8 34 22 3 11 0 27-8 44-20 40-69 85-99 91-7 2-7 2-14 1zm44-25c20-9 39-30 39-42 0-5-5-15-11-20a31 31 0 00-41-3c-15 11-28 43-23 57 3 10 9 13 21 13l15-5zm56-55c2-1 5-3 6-6 6-8 5-17-3-20l-5-2 2-4c3-7 2-15-3-19-2-2-4-3-8-3-6 0-9 1-14 6l-4 3-2-4-5-6c-3-3-9-3-12-1-9 6-9 27 0 33 5 3 9 3 13 0l2-3 4 4 5 3c2 0 2 1 2 3-1 9-1 10 1 13 4 6 13 8 21 3zm-82 53c-4-3-6-7-6-15s2-15 7-25 12-18 19-21c7-4 16-5 23-1 6 3 13 9 15 15 5 11-3 24-20 37-15 10-32 15-38 10zm66-57c-3-3-3-9 0-12 3-4 9-7 13-7 3 0 7 2 8 6 2 4-2 10-7 13s-11 3-14 0zm-9-21c-5-4-4-13 2-19 5-5 11-7 15-5 7 3 7 12 1 19-5 7-13 9-18 5zm-21-2c-7-7-6-22 2-25 2-1 3-1 5 1 5 4 8 12 5 19s-7 8-12 5zm-247-62V602a688 688 0 01253-78h14l-1 6-2 15c-2 16-1 15-6 15-36 0-68 40-73 89-4 35 9 65 32 77l11 4 5 1-22 104-2 7-10 5c-53 29-80 40-168 71l-30 11-1-162zm77-81c10-5 53-18 87-26 13-3 17-5 14-7-2-2-74 18-95 26-9 4-13 6-12 8 1 1 1 1 6-1zm6-26c15-6 55-18 92-27 4-1 6-4 2-4a639 639 0 00-105 32c-1 1 0 3 1 3l10-4zm-6-22c11-5 42-15 82-25l16-4c4-1 5-3 3-4-1-1-57 13-81 21-20 7-28 11-25 13 1 1 1 1 5-1zM517 912a958 958 0 01-173-74c-2-1-10-38-20-84l-5-22c0-1 1-2 4-2 13-2 28-15 35-29s9-21 9-41l-3-29c-5-17-10-29-20-41-13-18-30-29-47-29l-7-1-2-20-3-21h8a701 701 0 01261 78 1143 1143 0 00-3 169l-1 158-34-12zm356-214c-7-1-16-6-22-12-7-6-8-9-8-27 0-20 5-41 14-56 6-10 19-23 27-27 17-7 33-6 44 4l4 3-3-5c-2-6-3-8-7-12-2-2-2-3-1-10l2-7 2 3c7 9 12 22 14 37l3 13c5 15 6 32 3 47-1 7-2 10-5 15-16 24-44 39-67 34zm-565-8c-20-2-40-18-52-39-3-6-3-6-3-19l1-20 4-16c3-18 10-38 17-45l3-2 1 9 1 9-2 2c-3 2-9 11-9 12h1c3-4 14-9 21-10 31-2 59 31 65 78 1 7 1 9-1 13-8 20-27 31-47 28zm277-87c-9-2-12-4-25-12-13-9-45-25-66-34a858 858 0 00-167-46l-1-6-1-6h6c11 0 32 3 49 6 50 10 99 31 177 73l21 11 22-1h23l14-8a463 463 0 01225-76h12v4c0 7-1 8-6 9a825 825 0 00-238 80c-14 7-32 9-46 6zm2-21l-5-1-14-8c-27-18-55-33-83-46l-9-4 7-3 14-8 23-22c25-33 35-75 24-103-4-10-10-17-17-20s-24-4-36-2c-25 5-51 18-69 36a95 95 0 00-32 59c-2 12 0 23 5 35 1 2 0 1-11 0l-21-4c-9-1-9-1-9-4-3-20-1-49 6-72 21-67 78-122 154-146 46-15 104-17 152-5 47 11 87 32 118 63a198 198 0 0162 164c-1 4-1 4-7 5-8 0-34 5-36 6-3 0-3 0 1-7 16-35-2-81-44-109-16-10-38-18-54-21-10-2-26-1-32 2-18 6-26 32-22 62 7 41 37 82 69 93 5 2 5 2 3 3a547 547 0 00-106 55l-32 2zm-4-75c7-2 10-5 14-10l3-4 3 5 9 8c6 2 7 3 15 3 7 0 9-1 14-3 9-4 15-12 14-18-1-5-7-5-8 0s-2 7-7 10c-4 2-6 3-13 3-8 0-9-1-13-3-5-4-9-11-10-18v-6h4c7-1 17-7 23-13 11-10 11-15 2-19-9-3-20-4-38-4-19 1-28 3-33 7-3 3-3 3-2 6 3 8 18 19 30 22l5 2v4c0 10-6 18-15 21-7 3-20 0-25-6l-3-5c-2-7-7-6-7 1 0 5 4 11 9 14 9 5 20 6 29 3zm6-58c-5-2-5-5 0-6 6-2 23-1 25 1l1 3c-2 3-19 4-26 2zm-94-17c-6-3-9-9-9-17 1-10 7-16 17-16 12 0 21 14 15 25-5 9-14 12-23 8zm194 0c-6-3-9-9-9-16 0-10 7-17 16-17 19 0 25 25 8 33-6 3-10 3-15 0z"/>
    <use x="-1" y="-4" xlink:href="#B"/>
    <path d="M296 296c1-11 9-29 17-41l15-17c16-16 32-26 52-31 6-2 11-2 22-2 14 0 15 0 23 3 25 9 41 30 43 58v10l-9 5a181 181 0 00-16 9l-1-9c-1-11-4-20-10-28a56 56 0 00-50-23c-13 1-21 3-33 10-25 11-42 30-53 58v-2zm607 1l-4-10c-23-45-75-69-112-51-9 5-19 15-24 24-3 8-6 18-6 26v5l-9-6-12-7c-5-2-5-4-4-16 2-17 8-29 19-40 16-16 43-22 70-15a122 122 0 0180 76l3 15-1-1z"/>
  </g>
  <path fill="#176c98" d="M582 943c-9-2-19-6-20-10V769c0-179 0-167 6-164 21 8 39 9 59 3 5-2 7-2 9-1l2 1v326l-3 3c-3 3-9 6-16 8-7 1-28 1-37-1zm42-35c3-3 3-7 0-9-1-2-4-2-23-2l-23 1c-2 1-3 5-2 7 1 5 2 5 25 5 19 0 22 0 23-2zm-2-21c5-2 6-9 1-12l-22-1-22 1c-5 3-4 10 0 12h43zm1-23c5-3 4-11-1-12h-42c-5 1-6 9-1 12h44zm25-97V602a667 667 0 01253-78h14l-3 18-2 18h-4c-36 0-68 40-73 89-4 35 9 65 32 77l11 4 5 1-23 104-1 7-10 5c-53 29-80 40-168 71l-30 11-1-162zm77-81c9-5 53-18 87-26 13-3 17-5 14-7-2-2-74 18-95 26-9 4-13 6-12 8 1 1 1 1 6-1zm6-26c15-6 55-18 92-27 4-1 6-4 2-4a639 639 0 00-105 32c-1 1 0 3 1 3l10-4zm-6-22c11-5 42-15 82-25l16-4c4-1 5-3 3-4-1-1-57 13-81 21-20 7-28 11-25 13 1 1 1 1 5-1zM517 912a958 958 0 01-173-74c-2-1-10-38-20-84l-5-22c0-1 1-2 4-2 13-2 28-15 35-29s9-21 9-41l-3-29c-5-17-10-29-20-41-13-18-30-29-47-29l-7-1-2-20-3-21h13c62 3 174 36 241 70 18 9 17 8 14 12-1 2-2 9-2 163l-1 160-34-12z"/>
  <g fill="#6b6869">
    <path d="M0 600V0h1200v1200H0V600zm613 358c11-2 24-6 29-11l24-8 76-28 7-3 16 8 71 34c6 2 21 1 28-1 24-9 55-33 79-63 32-39 42-74 28-99-1-3-6-9-10-13-11-11-29-19-56-23l-13-2 2-8c1-7 1-7 6-9 13-3 27-14 37-28a120 120 0 0019-106l-5-20c-6-22-11-35-19-41-4-3-4-3-4-11 0-7 0-8-2-11-4-6-8-6-24-6l-14 1v-5c0-6-1-10-6-13-3-2-5-2-12-2h-10l1-18c0-26-3-46-10-67l-3-10h6c17-3 36-13 48-27 36-44 17-120-41-158-54-37-118-24-138 28a101 101 0 00-6 27l-8-3a303 303 0 00-222 1c-4 2-5 2-5-4 0-10-9-32-18-42a82 82 0 00-41-26c-10-2-33-2-46 1-48 12-88 55-97 105-1 10-1 29 1 39 5 16 11 26 22 37 7 7 10 10 18 13 9 5 23 9 28 9l2 1-3 11c-7 22-11 45-10 66l1 12h-9l-12 1c-4 3-7 8-7 14v5h-14c-16-1-19 0-24 6-2 3-2 4-2 14l1 11-3 1-7 7c-9 11-15 27-20 54-3 15-4 18-4 34 1 17 1 23 6 38 10 30 32 55 55 62 6 2 7 3 8 13l1 4-11 1c-23 4-39 9-51 17-22 15-29 40-19 68 11 33 45 75 81 99 18 12 31 17 44 17 10 0 15-2 33-11l42-20 28-14 9 3 34 12 38 14c11 3 14 5 18 8 8 7 19 12 34 14 11 2 16 2 25 1zm-267-22c-30-5-82-53-101-94-9-18-11-32-6-44 4-14 23-23 40-20 11 2 28 12 41 25l5 6 4 16 5 18c1 2 7 5 14 9 7 3 13 7 14 9l5 11c12 28 13 49 3 58-6 5-15 8-24 6zm-4-21l7-7c7-13-1-41-17-57-8-8-13-10-24-10-7 0-9 0-14 2-11 6-20 20-19 28 1 7 5 13 16 24 18 19 38 26 51 20zm-66-58l4-4v-13c-1-1 0-2 2-2 2-1 5-2 6-4l3-3 2 2c8 7 19 0 21-13 1-12-5-21-13-21-5 0-10 4-12 9-1 4-2 4-4 1-5-6-17-9-23-5-7 4-8 11-3 23 1 1 0 2-2 2-4 1-8 6-9 9-2 14 17 27 28 19zm47 54c-15-5-36-22-41-34-4-7-2-14 5-21s12-10 21-10c10 0 14 1 22 9 17 18 23 48 11 55-4 2-12 3-18 1zm-62-58c-11-6-11-19 0-19 8 0 14 5 16 12 0 2 0 3-2 5-3 4-8 5-14 2zm10-22c-6-3-9-8-10-14 0-5 0-6 3-8 8-6 23 4 23 16 0 7-8 10-16 6zm25-2l-4-7c-2-8 3-18 9-18 9 0 11 19 3 25-3 3-6 2-8 0zm545 107c-6-1-12-5-15-9-6-10-4-30 5-52l4-10 14-7c8-4 15-8 16-10l6-21 6-21 23-19c6-4 16-8 22-9s17 1 24 4c6 3 13 11 16 17 3 11 0 28-8 45-20 40-69 85-99 92h-14zm44-25c22-10 40-31 39-43-1-10-10-21-21-26-7-3-17-3-24 0-15 7-29 30-31 50 0 7 1 13 4 17 6 8 19 9 33 2zm57-56c11-7 12-21 1-26l-4-1 2-4c5-12-1-22-12-22-5 0-9 2-14 6l-3 3-2-4c-8-15-24-8-24 10 0 14 11 23 20 16l3-3 2 3c1 2 4 3 6 4l3 3c-3 7-1 13 4 17 5 3 13 2 18-2zm-82 55c-5-3-7-8-7-15 0-9 2-16 7-26s14-19 21-22 15-3 21 0 13 11 16 16c3 8-1 18-13 29-15 14-36 22-45 18zm65-58c-4-5-1-14 7-17 7-4 14-1 14 6 0 9-15 17-21 11zm-10-21c-2-2-2-3-2-7 0-15 20-24 25-11 2 5-3 15-10 18-6 3-9 3-13 0zm-21-4c-5-5-5-17 0-21 7-6 15 3 14 14-2 10-9 13-14 7zm-245-60l-1-164a667 667 0 01267-77l-5 30v4h-8c-14 1-26 7-38 19-15 15-25 35-30 59-2 8-2 36 0 43 6 26 20 43 39 48 7 2 8 2 7 4l-11 54-10 43-3 12-11 6-25 13-23 12-14 5c-4 3-46 19-56 23l-56 20-17 6-4 1-1-161zm77-81a585 585 0 01101-30v-3h-5l-29 7c-30 8-52 15-62 19-11 5-12 5-12 7 1 3 2 2 7 0zm5-26c12-5 51-17 83-24 13-3 15-5 13-7a668 668 0 00-108 33c0 3 2 2 12-2zm1-25a685 685 0 0195-27v-3c-1-1-4 0-20 3-39 10-75 21-85 26-3 2-4 4-2 5l1 1 11-5zM538 919l-19-7c-45-15-94-34-120-46-8-3-54-28-55-29l-10-38-11-49-2-10c-2-9-2-10 3-10 6-1 14-5 20-10 10-8 19-25 22-41 2-9 1-31 0-40-5-25-16-46-32-61-12-12-29-19-40-18-3 1-4 1-4-1l-5-36v-4h13c62 3 174 36 241 70 18 9 17 8 14 12-1 2-2 9-2 163v160l-13-5zm306-270c1-24 10-46 25-61 13-13 26-18 42-15 10 2 17 6 17 9 0 4-3 5-10 2l-10-4c-14-4-30 4-42 20-9 11-14 21-20 44l-3 14v-8zm-491-2c-7-26-15-43-28-56-7-6-11-8-18-10-8-3-16-2-24 2-9 3-11 4-12 1v-3c1-3 11-7 19-8 15-2 25 1 38 13 11 11 19 25 24 42l3 27-2-8zm234-44c-9-2-15-4-24-11-27-18-60-33-107-48a821 821 0 00-129-33l-1-6-1-6h5c13 0 42 4 60 8 29 7 63 19 92 33 19 8 69 34 82 42l13 6h46l14-8a523 523 0 01232-76h5v6l-1 6-15 2a741 741 0 00-225 78c-11 5-19 7-30 8l-16-1z"/>
    <path d="M587 582l-5-1-16-9c-24-16-65-38-85-46l-5-3 3-1c27-10 52-40 64-75 4-14 5-22 5-35 0-22-8-39-21-45-8-3-25-4-37-2-39 8-76 35-92 67-6 11-8 22-8 35 0 11 0 13 3 21l2 9-11-3-20-3-10-1c-1-2-2-25-1-35 7-99 93-180 208-197 18-2 60-2 77 0 75 11 139 49 176 105a194 194 0 0131 132l-13 2a517 517 0 00-31 5l3-7c5-9 6-18 6-31-1-13-3-20-9-33-18-37-67-67-109-67-19 0-28 5-35 19-15 31-1 84 32 117 10 10 18 16 29 21l6 3-12 5c-26 11-56 27-76 40-13 10-15 11-24 12l-25 1zm-4-74c5-2 12-8 15-12l2-3 3 5c2 3 6 5 9 7 6 3 7 3 15 3 7 0 9 0 14-2 9-5 15-12 14-18-2-5-8-4-8 1 0 6-11 13-22 12-12-1-19-9-21-21v-6h4c7-1 16-6 23-13 10-9 11-15 4-18-8-4-18-5-35-5-23 0-36 3-40 8-1 3-1 3 1 7 5 9 18 18 29 20 5 2 5 2 5 5 0 15-10 24-24 23-10-1-17-5-19-12s-7-6-7 1c0 13 21 23 38 17zm6-59c-5-2-5-5 0-6 9-3 27 0 26 3s-19 5-26 3zm-92-16c-3-1-8-6-10-9-2-4-1-11 1-16 4-8 15-12 23-7 5 3 9 9 9 15 0 4-3 11-6 13-4 4-12 6-17 4zm192-1c-8-4-12-16-7-24 2-5 7-8 13-9 6 0 10 1 15 6 7 9 4 22-6 27-6 2-9 2-15 0z"/>
  </g>
  <path fill="#018fd9" d="M584 944c-8-2-13-4-18-7l-3-2V770c0-187-1-169 8-165l12 4c12 3 31 2 42-1 8-3 9-3 11-1l2 1v324l-4 4c-6 6-14 8-30 9l-20-2zm41-36c2-3 2-6 0-9s-2-3-24-3-22 1-24 3c-2 3-3 6 0 9 1 2 2 2 24 2s23 0 24-2zm-1-23l3-3-3-7-23-1-23 1-3 6 3 5c2 2 2 2 23 2s21 0 24-2zm1-23c3-3 2-6-1-9-2-2-2-2-23-2s-21 0-23 3c-3 3-4 5-1 8l2 3h44l2-3zm24-95l-1-164c-1-2 0-2 5-6a759 759 0 01248-73h14l-2 14-3 18v4h-8c-14 1-26 7-38 19-15 15-25 35-30 59-2 8-2 36 0 43 6 26 20 43 39 48 7 2 7 2 7 4l-11 54-10 43-3 12-12 6-25 13-23 12-13 6-56 22-57 20-16 6-4 1-1-161zm77-81a585 585 0 01101-30v-3h-5l-29 7c-30 8-52 15-62 19-11 5-12 5-12 7 1 3 2 2 7 0zm5-26c12-5 51-17 83-24 13-3 15-5 13-7a668 668 0 00-108 33c0 3 2 2 12-2zm1-25a685 685 0 0195-27v-3c-1-1-4 0-20 3-39 10-75 21-85 26-3 2-4 4-2 5l1 1 11-5zM538 919l-19-7c-45-15-94-34-120-46-8-3-54-28-55-29l-10-38-11-49-2-10c-2-9-2-10 3-10 6-1 14-5 20-10 10-8 19-25 22-41 2-9 1-31 0-40-5-25-16-46-32-61-12-12-29-19-40-18-3 1-4 1-4-1l-5-36v-4h13a739 739 0 01256 78c1 1 1 1-1 4-1 2-2 9-2 163v160l-13-5z"/>
  <g fill="#697c85">
    <path d="M0 600V0h1200v1200H0V600zm622 357c6-2 18-7 20-10l16-6 69-24 22-8a1054 1054 0 0187 41c5 1 17 1 24-1 34-8 85-55 106-98 8-16 11-27 11-40 0-25-14-43-43-53-8-3-27-7-36-8l-6-1 2-8 1-7 7-3c27-8 49-38 57-75 2-8 2-13 2-26 0-14 0-17-2-25l-7-24c-7-27-13-38-20-45-4-3-4-3-3-9 0-8-2-12-7-16-3-2-4-2-18-2l-15 1v-6c0-5-2-9-7-12-3-2-5-3-12-3l-10 1 1-4c2-22-1-55-9-79l-3-10c-1-2 0-2 5-3a77 77 0 0062-52c23-68-43-153-118-153a78 78 0 00-80 66l-2 10-5-2a306 306 0 00-221-1l-7 3v-4c-5-31-19-52-43-64-14-6-20-8-38-8-14 0-18 1-25 3-49 13-88 55-97 104-2 11-1 31 1 40 9 31 31 52 61 58l9 2-3 11c-7 20-10 41-10 64v14l-7-1c-13-1-20 5-20 16v5l-14-1c-16 0-18 0-23 5-3 4-4 8-3 17l1 8-6 6c-13 13-20 33-27 75-2 11-1 34 2 45a108 108 0 0048 68l12 5 4 1 3 14-9 2c-13 2-31 6-40 10-13 6-21 12-28 22-12 18-11 42 3 70 20 41 69 87 103 97 9 2 20 3 28 0 2 0 24-10 47-22l44-21 26 9 46 17c19 6 22 8 26 11 6 7 20 13 36 15 7 1 24 0 31-1zm-278-21c-25-6-64-39-89-75a91 91 0 01-18-48c0-10 1-16 6-23 7-9 22-14 36-12 11 2 29 13 42 26 4 5 4 5 8 21l5 18 14 9 13 7 4 8c11 23 15 45 10 57-4 10-17 15-31 12zm-2-21c12-6 13-24 4-44-12-26-32-37-50-28-7 3-15 10-18 17-3 6-3 14 0 20 9 15 27 30 43 35 8 3 16 3 21 0zm-69-56c7-3 10-11 7-18-1-2-1-3 2-3l6-4 3-3 2 2c5 3 9 4 13 1 5-3 8-10 8-17 0-9-4-15-10-18-5-2-11 2-14 8l-2 4-4-3c-5-4-9-6-14-6-8 0-13 4-14 12l3 13c1 1 0 2-2 2l-5 4c-8 7-3 21 10 26h11zm568 77c-14-2-20-14-18-32 2-13 10-36 13-39l14-7c7-3 14-8 14-9 2-2 4-7 7-24 5-19 4-18 13-26 17-15 30-21 43-21 7 0 15 1 20 4s11 9 13 15c9 18-2 50-29 82-10 11-28 29-38 37-23 17-37 22-52 20zm39-22c14-5 30-18 39-31 8-12 7-21-4-33-13-13-30-14-45-2a72 72 0 00-22 46c0 19 13 27 32 20zm60-57c13-7 15-23 3-28l-4-1 2-4c5-12-2-24-13-23-5 1-12 5-14 8s-3 2-3 0c-2-7-10-12-16-10-11 4-13 22-4 32 3 3 4 4 8 4 3 0 8-2 9-4 0-1 2 0 3 2s4 3 6 4 3 2 2 3v7c0 7 4 12 13 12l8-2zm-398-37a339 339 0 01-153-186c-8-22-17-58-22-80l-2-11a260 260 0 00-79-12l-1-6v-6h13a740 740 0 01256 78c1 1 1 1-1 4-1 2-2 7-2 113v111l-9-5z"/>
    <path d="M649 715l-1-112c-1-2 0-2 6-6a759 759 0 01247-73h14l-1 5-1 6-7 1c-12 0-36 3-62 8l-11 2-1 10-13 49-17 5c-51 13-83 24-83 28 0 2 2 2 10-1a458 458 0 0189-26l-4 11-2 10-9 2c-19 5-56 15-68 20-12 4-16 6-16 8 0 3 2 3 8 0a404 404 0 0182-25l-3 10-4 10-13 5c-43 11-70 20-70 24 0 2 3 2 7 0a347 347 0 0172-21l-7 14a354 354 0 01-89 111c-10 8-36 26-47 32l-6 3V715zm-62-112c-7-1-15-5-21-9-16-11-43-25-70-36-46-18-109-36-155-44l-15-3v-6l-1-6h4c15 0 45 4 66 10 45 11 101 35 167 71l15 8h46l20-11a460 460 0 01219-72l12-1v2l-1 6c0 4-1 4-4 4l-52 11c-59 14-110 33-161 58-19 10-24 12-35 16-9 2-25 3-34 2zm-3-22a614 614 0 00-107-58l4-2c11-4 25-15 35-27 20-24 32-53 32-81 0-23-7-39-20-45-6-3-8-4-17-4a133 133 0 00-111 64 75 75 0 00-7 62l2 6-11-2-20-3-10-1-1-5c-1-9 1-41 3-52 12-63 56-116 119-148a276 276 0 01163-27c47 7 89 24 126 51 12 9 35 32 44 44a191 191 0 0137 139c0 3 0 3-6 3l-34 6-4 1 3-6c5-10 6-20 6-32-1-13-3-20-8-32-16-32-52-58-92-67-9-2-27-2-34 0-24 8-32 44-18 84 11 33 35 62 62 73 5 2 5 2 3 3l-17 7a426 426 0 00-88 48c-7 1-27 2-34 1zm0-74l10-7c5-5 6-6 7-5 2 4 6 8 11 10 10 6 26 5 35-2 7-5 10-16 6-18-3-2-5 0-6 4-2 7-10 12-21 12-6 0-14-4-17-8s-5-12-5-15 1-3 6-5c14-3 31-17 30-25-1-6-17-10-40-10-21 0-34 3-39 8-2 2-2 2-1 6 4 8 19 19 30 22 5 1 5 1 5 4-1 11-7 20-15 22-9 2-21 0-25-6l-3-5c-2-7-7-6-7 1 0 13 21 23 39 17zm6-58c-6-1-7-4-1-6 8-2 25 0 25 3s-15 5-24 3zm-93-16c-16-6-14-32 3-34 6 0 11 1 15 6 8 9 5 22-5 27-5 2-8 2-13 1zm195 0c-4-1-9-5-11-9s-1-11 1-16c4-9 17-12 25-5 10 9 8 23-3 29-5 2-8 2-12 1z"/>
  </g>
  <path fill="#986c66" d="M323 911c-15-5-36-22-41-34-4-7-2-14 5-21 6-7 12-10 20-11 5 0 7 0 12 3 14 7 26 27 28 45 0 9-2 14-6 17-4 2-12 3-19 1zm-62-58c-8-4-11-13-5-17 5-4 15-1 19 6 5 9-4 16-14 11zm10-22c-6-3-9-8-10-14 0-5 0-6 3-8 3-3 10-2 15 1 8 6 10 17 5 21-3 3-9 3-13 0zm25-2c-6-6-6-17 0-22 3-4 7-4 10 0 5 6 4 18-2 22-3 3-6 2-9 0zm564 81c-4-2-6-6-7-13 0-9 1-16 7-27 13-26 33-33 50-17 3 2 6 6 7 9 4 8 0 19-11 30-16 14-37 22-46 18zm65-58c-6-7 2-18 13-18 5 0 8 2 8 7 0 9-15 17-21 11zm-10-21c-2-2-2-3-2-7 0-15 20-24 25-11 2 5-3 15-10 18-6 3-9 3-13 0zm-21-4c-5-5-5-15-1-20 5-6 13-2 15 7 2 12-8 21-14 13z"/>
  <g fill="#00a1e9">
    <path d="M563 936l-1-166c1-186 0-169 9-165l12 4c13 3 35 2 46-3h7l2 2v164l-5 8a94 94 0 01-54 45l-8 3-1 53-1 55h-6zm75-82v-39 39z"/>
    <use xlink:href="#D"/>
    <use x="-17" y="-6" xlink:href="#D"/>
    <use x="-39" y="-14" xlink:href="#D"/>
    <use x="205" y="-19" xlink:href="#D"/>
    <use x="-87" y="-32" xlink:href="#D"/>
    <path d="M591 873z"/>
    <use x="-49" y="537" xlink:href="#C"/>
    <path d="M542 820a339 339 0 01-153-186c-8-22-17-58-22-80l-2-11c-1-3-46-11-67-11-12-1-11 0-13-8v-5h12c65 4 181 38 247 73l11 6-2 3c-1 2-2 8-2 113v111l-9-5zm107-105l-1-112c-1-2 0-2 7-6a743 743 0 01246-73h13v2l-1 6v4h-7c-13 0-36 3-62 8l-11 2-2 10c-2 13-11 48-12 49l-18 5c-50 13-82 24-82 28 0 2 2 2 10-1a458 458 0 0189-26l-4 11-3 10-8 2c-19 5-56 15-68 20-12 4-16 6-16 8 0 3 2 3 8 0a404 404 0 0182-25l-3 10-4 10-14 5c-43 11-69 20-69 24 0 2 3 2 7 0a347 347 0 0172-21l-7 14a354 354 0 01-89 111c-10 8-36 26-47 32l-6 3V715z"/>
    <use x="-44" y="516" xlink:href="#C"/>
    <use x="-567" y="513" xlink:href="#C"/>
    <use x="-43" y="511" xlink:href="#B"/>
    <use x="-568" y="509" xlink:href="#C"/>
    <use x="-39" y="494" xlink:href="#C"/>
    <use x="-572" y="492" xlink:href="#C"/>
    <use x="-37" y="485" xlink:href="#C"/>
    <use x="-574" y="482" xlink:href="#B"/>
    <use x="-578" y="464" xlink:href="#C"/>
    <use x="-31" y="457" xlink:href="#C"/>
    <use x="-580" y="454" xlink:href="#B"/>
    <use x="-581" y="450" xlink:href="#C"/>
    <use x="-26" y="432" xlink:href="#C"/>
    <path d="M880 732l-2-1v-1c2 0 4 2 3 3l-1-1z"/>
    <use x="-204" y="-187" xlink:href="#D"/>
    <use x="344" y="-187" xlink:href="#D"/>
    <use xlink:href="#E"/>
    <use x="-542" y="385" xlink:href="#C"/>
    <use x="-73" y="369" xlink:href="#B"/>
    <use xlink:href="#F"/>
    <path d="M367 660c0-4 1-5 1-3v6c-1 2-1 1-1-3zm464 0c0-2 0-3 1-2a17 17 0 010 4c-1 1-1 0-1-2z"/>
    <use y="-19" xlink:href="#F"/>
    <use xlink:href="#G"/>
    <use x="-544" y="318" xlink:href="#C"/>
    <use x="-67" y="316" xlink:href="#C"/>
    <use x="-615" y="255" xlink:href="#B"/>
    <use x="366" y="-356" xlink:href="#D"/>
    <use x="375" y="-357" xlink:href="#D"/>
    <use x="543" y="-116" xlink:href="#F"/>
    <use x="-616" y="248" xlink:href="#C"/>
    <use x="-617" y="239" xlink:href="#C"/>
  </g>
  <g fill="#3898c4">
    <use x="83" y="28" xlink:href="#D"/>
    <path d="M591 910a317 317 0 0120 0c5 0 1 1-10 1l-10-1zm0-37a317 317 0 0120 0c5 0 1 1-10 1l-10-1z"/>
    <use x="-566" y="518" xlink:href="#C"/>
    <use x="-573" y="487" xlink:href="#C"/>
    <use x="-32" y="462" xlink:href="#C"/>
    <use x="-27" y="438" xlink:href="#C"/>
    <use x="-584" y="436" xlink:href="#C"/>
    <use x="-585" y="431" xlink:href="#C"/>
    <use x="-209" y="-186" xlink:href="#D"/>
    <use xlink:href="#H"/>
    <path d="M367 660l1-3v6c-1 1-1 0-1-3zm232-49a17 17 0 014 0l-2 1-2-1zm49-2l-1-6 8-6a743 743 0 01246-73h13v2l-1 6v4h-12a655 655 0 00-237 69l-16 7v-3z"/>
    <use x="84" y="-306" xlink:href="#D"/>
    <path d="M535 599a734 734 0 00-248-69l-1-6-1-5h12c65 4 181 38 247 73l11 5-5 10-15-8z"/>
    <use x="103" y="-311" xlink:href="#D"/>
    <use x="5" y="251" xlink:href="#C"/>
  </g>
  <path fill="#f47556" d="M321 910c-9-3-19-10-29-20-13-14-15-21-8-30 9-13 24-18 35-12 14 6 26 27 28 44 1 17-8 24-26 18zm-58-56l-7-5c-4-5-4-10 0-13 7-6 20 2 20 11 0 4 0 4-3 6-4 2-5 2-10 1zm8-23c-3-1-5-4-7-7-8-12 2-22 14-14 5 3 9 9 9 14 0 3-2 8-4 8-4 2-8 1-12-1zm26-1c-6-3-7-17-1-23 5-6 12-2 13 7 1 11-5 19-12 16zm562 79c-12-7-5-37 12-54 12-13 27-14 39-2 6 5 9 13 9 18-2 10-10 20-23 28-16 11-30 14-37 10zm68-56c-6-2-5-12 2-16 12-8 23 1 14 11-4 5-11 7-16 5zm-10-21c-7-3-5-17 5-23 11-6 20 1 14 14-4 7-13 11-19 9zm-22-3l-3-6c-4-9 0-18 6-19 6 0 9 5 9 14 0 10-5 15-12 11z"/>
  <g fill="#ea7c66">
    <path d="M329 911h6l-3 1-3-1z"/>
    <use x="-206" y="-6" xlink:href="#D"/>
    <path d="M341 909c2-2 2-3 2-9 0-8-2-14-7-25-5-10-11-17-19-21-7-4-15-5-23-1-5 3-12 9-12 11l-1 1c-1-1 6-9 10-13 8-7 20-9 28-4 14 6 26 27 28 44 0 6 0 8-2 12l-4 6c-2 1-2 1 0-1z"/>
    <use x="-209" y="-7" xlink:href="#D"/>
    <path d="M315 907c-4-2-4-2 0 0s5 2 3 2l-3-2zm-9-5l-1-2 3 2c2 3 1 3-2 0zm-8-7l-4-4 4 4 4 4-4-4zm-10-10l-3-3 3 3 3 3-3-3zm-5-6l-2-4c0-2 0-1 3 3 2 5 2 5-1 1zm-3-9c0-2 0-3 1-2v4c-1 1-1 0-1-2z"/>
    <use x="-266" y="-63" xlink:href="#D"/>
    <path d="M259 851c-1-1-1-1 0 0l3 2h-1l-2-2zm15-2c0-4 0-5-4-8-6-6-16-6-16 0l1 5v1c-3-4-2-9 1-11 7-6 20 1 20 11l-1 5c-1 1-2 0-1-3zm2-17a17 17 0 014 0l-2 1-2-1zm7-1l1-2c4-3-4-16-11-19-8-3-12 0-11 9v2c-2-3-1-9 1-11 6-6 18-2 22 7 2 6 2 8 0 12-1 3-2 4-2 2zm-16-3l-3-2 4 2 3 3-4-3zm36 1c4-2 5-13 2-19-2-2-3-3-5-3-3 0-4 1-5 2l-2 1c0-2 6-6 8-6 1 0 4 1 5 3 2 2 2 3 2 10 0 5 0 7-2 10l-3 3v-1zm-10-3v-2l1 1c1 2 0 3-1 1z"/>
    <use xlink:href="#I"/>
    <use x="-613" y="518" xlink:href="#C"/>
    <use x="-613" y="510" xlink:href="#C"/>
    <use x="-15" y="180" xlink:href="#H"/>
    <use x="-8" y="180" xlink:href="#H"/>
    <path d="M875 909l3-1v1l-4 1c-1 0-1-1 1-1zm-19-3c-8-11 0-37 15-52 12-12 26-13 39-1 4 3 9 11 8 12l-1-2c-1-2-6-6-12-9-17-9-39 9-46 37-2 8-3 13-1 16s0 2-2-1zm30-1l2-1h1l-3 1zm4-2l2-2 2-1-2 2-2 1zm5-3l3-3 3-2-3 3-3 2zm12-10l5-5-5 5-5 5 5-5zm7-10l3-4-4 7 1-3z"/>
    <use x="12" y="570" xlink:href="#C"/>
    <use xlink:href="#J"/>
    <path d="M925 851c-2-3-2-6-1-10 4-8 18-10 21-4v1h-11c-6 3-10 8-8 12 1 4 1 4-1 1zm14 0l5-5 2-2-4 5-5 4 2-2zm-25-21c-5-9 5-23 16-23l6 2c1 2 1 2-3 1-6 0-10 2-14 7s-5 12-3 14c2 0 2 1 1 1l-3-2zm11 2l3-2h1l-4 2z"/>
    <use x="-32" y="-24" xlink:href="#J"/>
    <path d="M893 826c-4-7-4-14 0-19 3-4 8-4 11-1 1 2 1 2-1 1-4-1-8 1-9 5-1 5-1 12 1 15l1 2-3-3z"/>
    <use x="579" y="118" xlink:href="#E"/>
    <use x="1" y="519" xlink:href="#C"/>
    <use x="31" y="517" xlink:href="#C"/>
    <use x="2" y="513" xlink:href="#B"/>
    <use x="32" y="514" xlink:href="#C"/>
    <use x="32" y="509" xlink:href="#C"/>
    <use x="1" y="508" xlink:href="#C"/>
  </g>
  <g fill="#e28773">
    <use x="-202" y="-5" xlink:href="#D"/>
    <path d="M343 907c2-4 1-8-1-17-3-12-8-21-16-30l-13-9c-9-2-18 0-27 7l-3 3 2-3c8-11 23-16 34-11 18 9 33 41 27 56l-4 6 1-2z"/>
    <use x="37" y="74" xlink:href="#I"/>
    <use x="23" y="60" xlink:href="#I"/>
    <use x="20" y="56" xlink:href="#I"/>
    <use x="-74" y="157" xlink:href="#E"/>
    <path d="M267 854h2c1 1 0 1-1 1l-1-1zm7-3c4-9-14-20-19-13l-2 1c0-2 5-5 9-5 7 0 14 6 14 13l-2 5v-1z"/>
    <use x="-255" y="-84" xlink:href="#D"/>
    <path d="M284 829c3-6-2-14-9-18-4-2-10-3-12-1l1-1c5-5 17 0 21 8 2 5 3 8 1 12s-3 4-2 0z"/>
    <use x="-230" y="-86" xlink:href="#D"/>
    <path d="M266 828l-2-3 3 2 2 3-3-2zm39 0c6-8 1-23-7-22-1 1-2 0-1-1 2-2 6-1 9 1 5 5 4 18-1 23l-2 2 2-3z"/>
    <use x="333" y="-6" xlink:href="#D"/>
    <use x="341" y="-6" xlink:href="#D"/>
    <use x="345" y="-7" xlink:href="#D"/>
    <path d="M856 906c-8-11 0-37 15-52 12-12 26-13 39-1l6 6 1 3-3-3c-15-13-32-9-45 9-6 9-11 21-12 31l1 9 1 1-3-3z"/>
    <use x="537" y="195" xlink:href="#E"/>
    <use x="543" y="191" xlink:href="#E"/>
    <path d="M904 893l2-2-2 2-2 2 2-2z"/>
    <use xlink:href="#K"/>
    <use x="558" y="176" xlink:href="#E"/>
    <use x="551" y="199" xlink:href="#F"/>
    <use x="30" y="-36" xlink:href="#K"/>
    <path d="M924 850c-3-7 2-14 11-16 4-1 9 1 10 3s1 2-2 0c-3-1-7-1-12 2-3 2-5 5-6 10 0 2-1 2-1 1z"/>
    <use x="40" y="540" xlink:href="#C"/>
    <use x="-10" y="-21" xlink:href="#J"/>
    <path d="M914 830c-5-9 4-23 16-23l5 2c2 1 1 1-4 1-7 1-11 3-15 11-2 5-2 5-1 8 2 4 2 4-1 1z"/>
    <use x="548" y="122" xlink:href="#E"/>
    <use x="22" y="-59" xlink:href="#K"/>
    <use x="630" y="3" xlink:href="#I"/>
    <path d="M891 821c-1-4-1-11 2-14 2-3 8-4 10-1 2 1 2 2-2 2-6 0-8 3-9 11v6l-1-4z"/>
  </g>
  <g fill="#a4a1a2">
    <path d="M0 600V0h1200v1200H0V600zm622 356c7-1 19-7 20-9l11-4a3316 3316 0 0096-34l42 20 45 21c5 1 17 1 24-1 36-9 90-61 109-105 14-30 9-57-11-74-13-10-36-18-60-21h-6l2-8 1-7 7-2c28-10 49-39 58-77l1-24c0-15 0-18-2-25l-7-27c-7-23-11-33-18-40l-6-6 1-6c0-8-2-12-7-16-3-2-4-2-18-2l-15 1v-6c0-5-2-9-7-12-3-2-5-3-12-3h-9v-7c2-29-3-62-12-85-1-2-1-2 2-2a78 78 0 0070-82c-1-24-7-44-22-66-20-29-51-50-83-57-12-2-32-1-42 2-26 8-44 25-53 50l-4 16v7l-5-2c-69-28-151-29-219-2-10 4-10 4-10 2l-1-5c0-5-4-18-8-26a76 76 0 00-55-42c-11-2-31-1-42 2-32 9-59 29-78 57-20 31-25 67-14 97 9 25 34 45 61 49l5 1-3 8c-6 20-10 43-10 66v14h-7c-13 0-20 5-20 16v5l-13-1c-16 0-18 0-23 4-4 4-5 8-4 18l1 8-6 6c-12 11-20 31-25 59-3 20-3 23-3 37 1 32 13 60 34 80 9 8 21 15 29 17l4 2 3 13-13 3c-33 5-53 15-64 31-7 10-8 16-8 29 0 10 0 13 2 20 10 32 40 71 76 98 11 8 31 19 39 21 7 1 19 1 25-1l48-22 42-21 5 1 25 9 43 16c18 6 21 7 25 11 14 13 46 19 69 13zm-276-20c-24-4-67-40-91-76-13-20-18-34-18-49 0-8 0-10 3-15l6-10c8-6 22-10 33-8s24 10 38 23l8 7 4 17 5 18 14 9 13 7 3 8c5 10 11 26 12 34 4 25-7 38-30 35zm-4-21c12-6 13-25 2-47-5-11-13-20-21-25-4-2-7-2-13-3-7 0-9 0-14 3-4 1-8 5-11 7-11 11-12 21-6 31 6 11 21 24 33 30 11 6 23 8 30 4zm-69-56c7-3 10-11 7-18-1-3-1-3 2-3l6-4 3-3 2 2c5 3 9 3 13 1 5-4 8-10 8-17 0-9-4-15-10-18-5-2-12 2-15 8l-2 4-2-2c-6-7-17-10-23-5-6 4-8 12-4 20 2 5 2 5 0 5s-7 3-9 7c-4 8 2 19 13 23h11zm71 43c0-11-6-27-15-38-12-16-28-18-42-7-4 4-4 4-2 1 3-5 10-10 15-12 13-4 26 2 36 17 8 13 13 30 10 39-2 6-3 5-2 0zm-59-77c-1-9-9-16-17-16-4 0-5 0-3-1 7-5 22 6 22 16 0 5-2 5-2 1zm23-4c0-3 0-6-2-9-1-4-3-6-7-6l-2-1c2-2 7-1 9 1 3 3 4 13 2 17v-2zm533 115c-18-3-23-21-13-51 6-19 6-18 21-27l15-9c2-2 7-19 10-35 1-6 2-7 7-12 17-17 32-24 46-24 28 0 42 20 34 48-6 22-21 45-47 70-30 30-54 43-73 40zm38-22c14-4 36-23 42-35 5-10 3-20-8-30-19-18-43-10-58 19-11 22-9 41 3 47 5 1 14 1 21-1zm61-57c13-7 15-23 3-28l-4-1 2-4c2-5 3-11 0-16-4-8-15-9-25-1-2 2-5 3-5 2-1-3-5-8-8-9-3-2-5-2-8-1-11 4-14 22-4 32 3 3 4 4 8 4l7-2 3-2 2 3 6 3c3 1 3 1 2 4-2 6 1 15 6 17 4 2 11 1 15-1zm-85 47c-6-12 2-36 16-50 12-12 26-13 39-1l6 6 1 3-3-3c-9-8-21-10-31-4-7 3-14 11-19 21s-6 14-7 23l-1 9-1-4zm69-54c-4-9 8-20 18-16 4 2 4 3 0 2-7-1-16 6-17 12 0 3-1 3-1 2z"/>
    <path d="M913 826c0-4 0-6 3-10 4-8 15-12 20-7 2 2 1 2-1 1-7-3-18 4-20 14-1 3-2 4-2 2zm-22-5c-1-4-1-11 2-14 2-3 8-4 10-1l3 2-3-1h-6c-3 3-5 8-5 14v4l-1-4zM648 609l-1-6 8-6a743 743 0 01246-73h13v2l-1 6v4h-9a713 713 0 00-236 66l-20 10v-3zm-110-9a704 704 0 00-245-69c-7 0-7 0-8-7v-5h12c65 4 181 38 247 73l11 5-2 5-2 5-13-7zm49 3c-7-1-15-5-21-9-15-11-43-25-69-36-43-17-110-36-156-44l-15-3v-6l-1-6 11 1c41 2 83 13 129 32 19 8 73 35 96 48l16 9 23-1h23l17-9a454 454 0 01223-74l11-1-1 6v6l-13 2a868 868 0 00-239 83c-9 2-25 3-34 2zm-3-22a674 674 0 00-105-57c-2-1-2-1 5-4 40-19 71-78 64-120-4-20-12-30-25-34-7-3-25-3-34-1-46 10-86 44-97 83a78 78 0 003 48l-14-2-20-4h-7l-1-5a236 236 0 018-72c3-10 10-27 15-35l5-9 7-11c39-54 101-90 174-100 15-2 57-2 71 0 60 7 111 31 151 68 33 32 53 68 61 113 1 10 2 40 1 50l-1 6-13 1-22 4-9 2 3-5 4-13c3-10 2-28-1-39-12-38-51-70-97-80-12-2-31-1-38 2-13 6-21 23-21 45 0 46 33 97 71 110 3 2 3 2 1 3a647 647 0 00-105 55c-6 1-27 2-34 1zm0-74c5-2 10-6 15-11 1-2 1-2 2-1l3 5c10 11 31 12 43 2 7-5 10-15 6-17-3-2-5 0-6 4-2 6-9 11-19 12-6 0-7 0-12-3-7-3-11-10-11-18v-5l5-2c10-2 22-10 27-18 4-6 4-9-1-12-16-8-66-7-75 2-3 4-2 7 6 15 7 7 16 13 24 14l5 1-1 4c-1 17-16 26-32 20-6-2-9-5-10-10-1-4-3-5-6-4-6 1 0 15 8 20 9 4 21 5 29 2zm6-58c-6-1-7-3-2-6 7-2 26-1 27 3 1 3-17 5-25 3zm-94-17c-7-3-10-8-10-16 0-12 13-20 23-16 7 3 12 11 11 19-2 11-14 18-23 13zm196 1c-7-3-12-9-12-16 0-13 11-21 22-17 7 2 13 12 11 19-2 11-12 17-21 14z"/>
  </g>
  <path fill="#e4a59d" d="M344 902c1-11-6-27-14-38-13-16-29-18-43-7-4 4-4 4-2 1 3-4 7-7 12-10 4-2 6-2 12-2s7 0 12 3c17 10 30 41 25 55l-2 3v-5zm-69-53c0-7-8-13-16-13-3 1-4 0-2-1 2-2 8-1 12 1 5 4 7 7 7 12 0 2-1 2-1 1zm10-24c-1-9-9-16-17-16-4 1-5 0-3-1 8-6 25 9 21 19-1 2-1 2-1-2zm23-4c0-6-3-14-7-15s-5-1-2-1c4-1 6-1 8 3s3 12 1 16v-3zm547 83c-4-8-1-25 7-39 11-18 27-24 41-17 5 2 11 8 13 12 1 2 1 2-2-1-9-8-21-10-31-4-7 3-14 11-19 21s-6 14-7 24l-1 8-1-4zm69-54c-2-5 0-10 5-14 4-2 12-3 15 0h-2c-7-1-16 6-17 13 0 2-1 2-1 1zm-11-26c0-5 1-7 5-11 5-6 13-8 17-4l3 2-3-1c-7-3-18 4-20 14l-2 5v-5zm-22-3c-1-5-1-6 1-11 2-6 7-8 11-4l3 2-3-1c-6-2-12 5-11 14 1 5 0 5-1 0z"/>
  <g fill="#f4b4b3">
    <path d="M344 900l-2-13c-6-20-20-35-33-37-8-1-12 0-19 5l-6 3 4-3c6-6 13-9 20-10 8 0 14 3 21 10 11 11 19 32 18 44-1 8-3 8-3 1zm-69-52c0-6-11-14-17-13h-1c3-2 10-1 13 2 4 3 6 6 6 10-1 2-1 3-1 1z"/>
    <use x="-620" y="524" xlink:href="#C"/>
    <path d="M285 824c-1-5-2-7-5-10l-9-5c-4-2-4-2-2-2 8 0 16 7 17 16 1 3 0 4-1 1z"/>
    <use x="-598" y="520" xlink:href="#C"/>
    <path d="M308 818c0-5-3-10-6-12s-3-2-1-2c5 0 9 7 8 15-1 3-1 3-1-1zm546 85c-5-16 9-47 27-56 4-2 6-2 12-2 5 0 8 1 12 4l8 7 3 4-5-3c-12-9-24-8-35 3a63 63 0 00-20 47l-2-5zm69-57c0-3 4-8 8-10s10-2 12 0h-1l-7 1c-4 1-10 7-10 9l-1 3-1-3zm-10-21c0-7 4-13 10-17 4-1 9-1 12 1h-1c-7-1-16 5-19 14-2 5-2 5-2 2zm-22-5l-1-5 2-4c1-6 7-9 11-5l1 1c-2-2-6-1-8 2s-4 5-4 12v3l-1-4z"/>
  </g>
  <path fill="#afd6e2" d="M563 936l-1-166 2-166h4c1 1 2 10 2 166l-1 166-3 1-3-1zm86-327c-2-8-2-8 8-13 67-35 181-69 245-72h12v4l-1 6a712 712 0 00-244 67l-20 10-1-2zm-111-9a704 704 0 00-245-69c-7 0-7 0-7-7l-1-5h12a865 865 0 01258 78l-2 5-3 5-13-7z"/>
  <path fill="#d3d4d4" d="M0 600V0h1200v1200H0V600zm615 358c9-2 17-5 24-9l33-12 51-19 26-9 36 17c48 24 48 24 56 25 12 1 22-1 37-9 35-18 76-62 92-98 7-17 9-36 5-49s-16-26-31-33c-12-6-30-11-45-12l-6-1v-5c2-10 2-10 9-12 12-4 26-15 36-28 22-30 30-71 19-105l-6-22c-5-21-11-33-18-40l-4-3v-7c0-8-2-13-7-16-3-2-5-2-18-2l-15 1v-4c0-6-3-12-8-15-3-2-5-2-12-2h-8l1-13a206 206 0 00-13-80l7-2c31-5 54-27 62-58 3-11 3-33 1-44-9-38-36-73-72-91-18-9-34-12-54-12-15 1-21 2-34 9-8 4-11 6-19 14-9 9-14 16-18 27l-5 22-1 3-10-3a312 312 0 00-148-17 290 290 0 00-75 20l-1-7c-3-24-17-45-37-57-13-7-27-11-44-11a130 130 0 00-121 141 78 78 0 0068 65c3 0 3 0 3 2a515 515 0 00-4 13c-6 18-8 32-9 54v20h-9c-7 1-9 1-12 3-4 3-6 7-6 13v5l-15-1c-17 0-20 1-24 8-2 5-2 5-1 14l1 8-6 6c-13 13-19 28-25 64-7 36-1 68 18 96a87 87 0 0042 33c3 0 4 2 6 9l1 7h-2c-6 0-27 4-37 8-15 5-23 9-32 18-15 15-19 35-11 60a211 211 0 00112 115c8 1 20 2 26 0l36-17 44-21 12-6 20 7 40 15 26 9 11 6c12 12 40 19 62 15zm-52-22c-2-2-2-330 0-332 2-1 3-1 5 1 2 1 2 17 2 165l-2 165c-2 2-3 2-5 1zm-224-2c-15-6-33-18-52-36-24-23-40-47-47-68-3-8-3-11-3-19s0-10 3-16c5-11 15-16 30-17 7 0 10 0 15 2 9 3 22 12 32 21l8 7 4 17c3 13 4 18 6 20l14 8 12 6 4 10c7 15 12 32 12 43 0 10-6 21-15 23-6 2-17 1-23-1zm4-19c3-2 7-7 8-11 3-10 0-23-7-36-8-16-18-25-30-28-16-4-39 13-39 30 0 12 22 35 42 44 9 4 20 4 26 1zm-68-57l5-4c2-3 2-8 1-12-2-4-2-4 1-4l5-3 4-4 3 3c8 5 17-1 20-12 3-14-6-26-16-23-4 1-9 6-10 10v2l-5-4c-4-3-10-6-13-6l-6 2c-7 3-10 13-6 21 2 4 2 4 0 5-7 2-10 6-10 12 0 13 16 23 27 17zm559 75c-4-2-6-3-8-7s-2-5-2-17c0-10 0-12 3-22l6-16c3-6 4-6 13-11 18-9 19-10 20-14l5-18 4-17c2-7 20-22 35-29 6-3 7-4 18-4 10 0 11 1 17 3 24 12 24 42-1 79-22 34-60 67-85 74-9 3-19 2-25-1zm50-21c10-4 18-10 27-19 13-14 16-23 11-34-8-16-26-24-41-18-13 5-27 23-31 41-3 9-2 21 1 26 4 6 8 8 18 8 7-1 10-1 15-4zm58-56c9-6 12-17 6-23l-6-5c-3 0-3 0-2-3 3-3 4-12 2-16-4-9-16-11-26-3l-4 4-2-4c-3-5-7-8-12-8-3 0-5 1-7 4l-4 3-1 2-1 6c0 7 1 13 5 17 5 6 12 7 17 2 1-1 2-1 5 2 1 2 4 3 5 3 3 1 3 1 2 4-3 6 0 14 5 16 5 3 13 2 18-1zM649 609l-1-5c-1-3 0-3 20-13a787 787 0 01240-67c7 0 7 0 5 7v4l-10 1a683 683 0 00-246 71l-7 4-2-2zm-103-5a688 688 0 00-259-74l-1-6-1-5h12a749 749 0 01237 68l21 11-2 4-3 5-4-3zm43-1c-11-2-16-4-28-12-21-14-51-28-82-39a873 873 0 00-152-42l-1-6v-5l9 1c45 2 90 14 142 38 14 6 67 32 84 42l16 9 23-1h24l7-5 63-34a475 475 0 01180-45l-1 6v6l-5 1a822 822 0 00-225 76l-4 1-9 3c-13 6-29 8-41 6zm-3-22c-7-1-8-1-18-8-25-17-63-38-86-48l-5-2 4-2c48-21 82-95 62-137-7-16-16-20-35-20-26 0-56 11-80 30-31 26-46 64-36 94l3 8-13-3-21-3h-7v-4c-2-7-1-32 0-43 8-53 37-101 83-135 64-47 150-63 232-44 53 13 102 44 133 82 11 14 17 23 25 39 17 34 23 68 18 105v5h-7a424 424 0 00-36 6l3-7c4-9 5-17 5-30-1-22-10-41-29-61-12-11-23-19-35-25-35-17-70-19-83-5-17 20-16 58 1 92a117 117 0 0060 59l-6 3c-27 10-68 32-88 46-7 6-10 7-21 8h-23zm-3-73c6-2 12-7 14-11l2-3 6 6c6 7 12 9 22 9 15 0 29-10 28-20-1-7-7-6-8 0-1 4-4 8-11 10-6 2-11 3-17 1-8-3-14-11-14-20l-1-5 5-1c12-2 31-17 31-25 0-6-9-9-27-11-25-3-52 2-54 10 0 3 2 7 8 13 8 7 16 11 26 13 3 1 3 1 2 6-2 15-14 23-28 20-8-2-13-5-14-10s-3-7-6-5c-3 0-3 3-2 7 1 5 9 13 15 15 7 2 18 2 23 1zm7-59c-9-3-3-7 10-7 7 0 14 1 15 3 2 3-16 6-25 4zm-91-16c-7-2-12-8-13-15-1-17 19-25 29-13 11 13 0 32-16 28zm194 0c-7-2-12-8-13-16 0-7 3-12 9-16 11-6 24 2 24 15 0 11-9 19-20 17z"/>
  <g fill="#d9ebee">
    <path d="M0 600V0h1200v1200H0V600zm626 356l14-7 27-10 65-24 17-6 40 19c43 21 45 22 54 23 17 3 40-9 67-31 36-30 63-71 67-102 3-23-9-44-31-55-11-6-31-11-48-14l-5-1 1-8c1-5 2-6 4-7l9-3c25-11 45-39 53-74l2-20c0-15-1-27-5-38l-5-18c-6-23-11-35-19-42l-4-5v-16l-5-4-4-4h-15l-16 1v-6c-1-11-7-15-20-15h-8l1-13c1-24-4-55-12-75-2-5-1-6 5-6 14-2 29-10 41-20 11-10 18-23 22-38 3-12 3-35 0-47-13-54-59-96-111-101-35-3-66 13-81 41-4 9-8 19-9 28l-1 6-5-2a301 301 0 00-227 2l-1-5c-1-7-6-21-9-27a78 78 0 00-71-43c-31 0-60 13-85 37-15 15-23 27-31 46-19 46-5 94 33 114a93 93 0 0031 9l-3 9c-7 21-10 41-10 64v16h-7c-9 0-13 2-17 5-2 3-4 9-3 13v3l-15-1c-17 0-20 1-24 8-2 5-2 5-1 14l1 8-5 5c-13 12-20 30-27 65-2 16-3 34-1 46 2 10 6 26 10 34 12 24 31 43 50 48 6 2 6 2 8 9l1 6c0 1-1 2-7 2-16 2-35 8-48 14-10 5-21 16-25 24-8 14-8 32 0 52 3 8 11 23 16 31 23 33 60 67 87 77 12 4 20 6 29 4 8-2 12-4 68-31l28-14 4 1 77 28c9 3 12 5 16 8 6 6 15 10 26 13s12 3 26 2c10 0 14 0 21-2zm-63-20l-1-166 2-166c2-1 3-1 4 1 2 1 2 17 2 165l-2 165c-2 2-3 2-5 1zm260-25c0-15 9-43 15-47l4-2-5 11c-7 13-10 23-12 36l-2 11v-9zm-448-6c-3-13-12-34-20-46l-2-4 4 2c2 1 4 3 7 8 5 11 10 25 12 35 1 10 1 13-1 5zm-57-94c-9-10-14-13-28-20-7-3-8-4-18-4-9 0-11 1-16 3-8 4-13 9-17 15l-2 5v-3l2-9c5-13 19-21 36-20 13 1 25 7 42 23 7 6 8 7 9 13l2 7-10-10zm556 5l1-5c2-7 21-23 35-29 20-9 43-2 51 15l1 5-4-6c-6-5-11-8-18-11-18-4-36 3-58 24-4 5-8 8-8 7zM649 607l-2-5a880 880 0 01198-70c23-5 50-8 63-8 7 0 7 0 5 7v4h-10a683 683 0 00-246 72l-7 4-1-4zm-103-3a688 688 0 00-250-73c-10 0-9 0-11-8v-4h11a823 823 0 01258 79l-2 5-2 4-4-3zm43-1c-9-2-17-5-24-9-18-14-48-29-82-41-47-18-106-34-149-41-7-1-8-2-8-9v-3h9c27 0 69 9 108 24 26 9 82 36 118 56 18 10 19 10 45 9l19-1 12-8a490 490 0 01237-76l-1 6v6h-5a758 758 0 00-216 71c-18 9-30 14-41 16h-21z"/>
    <use x="-292" y="-150" xlink:href="#H"/>
    <use x="-269" y="-150" xlink:href="#H"/>
    <use x="50" y="-337" xlink:href="#D"/>
    <use x="87" y="-337" xlink:href="#D"/>
    <path d="M574 577l-1-2 2 2h-1zm-12-8l1-1 1 2-2-1z"/>
    <use x="292" y="-145" xlink:href="#E"/>
    <path d="M547 559h1l2 2-3-2zm-25-14v-1l2 1h-2zm156-1l2-1-2 1c-1 1-1 1 0 0zm-116-5a370 370 0 01-81-17l5-3c8-4 20-13 27-21 29-32 43-77 32-109-2-8-9-17-14-20-6-4-18-6-28-6-41 3-84 30-103 65a93 93 0 00-11 30c-1 1-10-19-11-23l-2-9c-2-11-2-34 1-45 2-9 5-15 15-28 8-11 32-35 43-43a271 271 0 01201-52c73 10 135 45 174 98a106 106 0 0114 24c1 0 1 1 0 0l-1 2 2 17a99 99 0 01-15 59l-2-7c-5-28-29-56-61-72-26-14-54-19-72-13-8 2-16 10-20 20-16 44 15 113 61 134l5 3h-4l-15 4a425 425 0 01-45 10l-21 1c-20 2-55 2-74 0zm26-34c3-1 7-4 9-7l3-4 3 5 9 7c4 2 5 2 15 2 9 0 11 0 16-2 6-3 11-9 12-13 0-5 0-7-2-8-3-2-5 0-6 4l-4 7c-3 2-12 5-16 5-10 0-19-7-21-16-3-8-2-10 1-11 12-2 24-9 30-18 4-5 4-9 0-12-10-8-57-9-73-1-7 4-6 8 3 18 6 6 14 10 23 13l6 1-1 6c-2 11-9 18-19 20-9 1-21-4-23-10s-1-6-4-7c-3 0-5 2-5 5 0 4 4 11 9 14 6 5 11 6 21 6 8-1 9-1 14-4zm6-56c-5 0-9-2-9-3 1-4 16-5 25-3 4 1 5 4 1 5-3 1-13 2-18 1z"/>
    <use x="244" y="-287" xlink:href="#I"/>
    <use x="341" y="-171" xlink:href="#E"/>
    <use x="175" y="-385" xlink:href="#D"/>
    <path d="M484 526v-1l1 1h-1z"/>
    <use x="187" y="-390" xlink:href="#D"/>
    <use x="-183" y="220" xlink:href="#C"/>
    <use x="274" y="-416" xlink:href="#D"/>
    <use x="279" y="-417" xlink:href="#D"/>
    <use x="285" y="-418" xlink:href="#D"/>
    <use x="288" y="-419" xlink:href="#D"/>
    <use x="-136" y="-421" xlink:href="#D"/>
    <use x="-46" y="-235" xlink:href="#H"/>
    <path d="M842 494l2-2c1-1 1-1 1 1s0 2-3 2c-2 0-2 0 0-1z"/>
    <use x="-153" y="-424" xlink:href="#D"/>
    <use x="-512" y="-240" xlink:href="#H"/>
    <use x="-520" y="-241" xlink:href="#H"/>
    <use x="-98" y="185" xlink:href="#C"/>
    <use x="-551" y="184" xlink:href="#C"/>
    <use x="-60" y="179" xlink:href="#B"/>
    <use x="-515" y="179" xlink:href="#C"/>
    <use x="-96" y="177" xlink:href="#C"/>
    <use x="-479" y="-174" xlink:href="#G"/>
    <use x="-517" y="168" xlink:href="#B"/>
    <use x="-479" y="-181" xlink:href="#G"/>
    <use x="-444" y="-184" xlink:href="#G"/>
    <use x="-552" y="157" xlink:href="#C"/>
    <use x="478" y="-217" xlink:href="#F"/>
    <use x="-478" y="-199" xlink:href="#G"/>
    <use x="-61" y="137" xlink:href="#B"/>
    <use x="-550" y="134" xlink:href="#C"/>
    <use x="-549" y="129" xlink:href="#C"/>
    <path d="M494 431c-9-7-11-19-2-27 5-5 12-6 19-3 5 4 8 8 8 15 0 10-5 16-15 17-5 0-7 0-10-2zm194 0c-13-8-9-29 6-32 14-2 25 16 16 27-5 7-15 9-22 5zm153-2l1-1 1 2-2-1z"/>
    <use x="-65" y="118" xlink:href="#C"/>
    <use x="-546" y="116" xlink:href="#C"/>
    <use x="-545" y="113" xlink:href="#C"/>
    <use x="-67" y="111" xlink:href="#C"/>
    <use x="-543" y="106" xlink:href="#C"/>
    <use x="306" y="-508" xlink:href="#D"/>
    <use x="14" y="-315" xlink:href="#E"/>
  </g>
  <path fill="#fefdfe" d="M0 600V0h1200v1200H0V600zm619 357c8-1 18-5 23-9l26-10 64-23 17-6 5 2 42 20c38 19 44 22 55 21 20-2 47-18 74-46 30-30 48-60 52-87 3-22-7-43-28-55-10-6-27-11-43-13-15-3-14-2-12-11 2-6 2-6 11-9 8-3 18-10 26-19a120 120 0 0026-114l-5-20c-4-14-9-27-13-33-2-4-9-11-10-11v-7c0-8-1-12-6-16-4-2-4-2-19-2h-15v-5c-1-11-7-15-20-15h-7v-21a179 179 0 00-12-71c0-1 1-2 5-2 8-1 21-6 28-10l14-13c11-10 17-21 21-35 3-12 3-34 0-47-17-72-94-119-154-95-12 5-23 14-31 23-8 12-16 32-16 42 0 5 0 5-6 2a312 312 0 00-170-16 302 302 0 00-57 18l-2-7c-6-44-45-73-90-68-26 3-51 15-72 34-39 38-52 91-32 131 12 23 31 36 61 42h2l-3 9c-7 20-10 39-10 62v17h-7c-9 0-13 2-17 5-2 3-4 9-3 13v3l-15-1c-17 0-20 1-24 8-2 4-2 5-1 13l1 9-7 7c-12 12-18 27-25 63-6 35 0 67 18 95 12 18 29 31 44 34 3 1 3 2 4 7l2 7c0 2 0 2-3 2l-12 2c-27 4-45 12-56 24-19 18-20 45-4 76 22 44 73 90 108 99 8 2 10 2 17 1 9-1 6 0 65-29l33-16 17 6 55 20c17 6 21 8 25 11 5 5 11 8 20 11 14 5 32 6 46 3zm-55-21c-2-1-2-11-2-166l2-165c1-2 2-2 3-1l2 2v328c0 2-4 3-5 2zm260-29c0-10 2-16 7-31 3-8 5-10 7-12l3-1-5 11c-5 12-9 24-11 35l-2 7 1-9zm-449-2c0-7-12-34-19-46-2-3-2-4 2-2 5 3 20 40 18 48h-1zm-58-95a92 92 0 00-33-22c-9-2-21-1-29 2-7 4-11 7-15 14-2 5-3 5-3 3 0-5 3-13 7-17 7-9 18-13 31-12 12 1 27 9 42 24l8 8 2 9-10-9zm558 4l1-5a106 106 0 0133-27c7-3 8-4 19-3 9 0 11 0 16 2 6 3 11 6 13 11 4 6 4 8 1 4-8-9-18-13-32-12-7 1-9 1-17 5-9 4-19 12-29 22-6 6-6 6-5 3zM648 606l-1-5 15-7a785 785 0 01247-70h5v4l-1 5c0 2-1 2-5 2a744 744 0 00-246 69l-13 7-1-5zm-118-10c-66-32-168-61-233-66-11 0-10 0-11-8l-1-3 12 1a744 744 0 01256 77c1 1 1 1-1 5l-2 4-19-10zm60 7c-10-1-17-5-28-12-30-20-72-38-131-56-31-9-72-19-97-23-7-1-7-1-7-4-2-8-2-8 8-8 30 0 79 12 122 29 23 9 77 36 110 54 12 7 15 7 38 6 16-1 20-1 23-3l42-24 29-15c49-23 111-39 157-41l14-1c4-1 4-1 4 1l-1 6v4l-11 1a720 720 0 00-224 77l-7 3c-11 5-28 8-41 6zm-14-64a471 471 0 01-93-17l4-4a126 126 0 0061-105 54 54 0 00-16-44c-12-8-34-8-59 0-41 14-74 46-82 80-2 8-2 8-3 6-3-5-8-16-10-24-2-7-3-10-3-27 0-16 1-19 3-26 3-11 15-28 32-46 40-41 94-66 157-74 14-2 51-2 64 0 79 9 146 48 184 106 7 11 10 21 10 36 0 14-1 25-5 35-2 9-9 23-10 22l-2-9c-10-37-48-71-94-82-12-3-31-3-38-1-10 4-16 10-21 22-12 32 3 83 35 115 7 6 14 12 23 17l5 3-8 2a367 367 0 01-134 15zm8-32c6-2 10-4 13-9l3-4 3 4c10 12 26 15 40 7 5-2 11-8 12-11 1-7-2-12-6-9l-2 4c-1 5-6 8-12 10s-9 2-15 1c-6-2-12-8-14-15-3-9-3-10 3-11 11-3 22-10 28-18 7-10 2-15-18-18-25-3-56 1-59 8-2 4 0 8 7 15 6 5 18 12 25 13l4 1-1 5c-2 8-3 11-7 14-3 4-10 7-15 7-8 0-20-7-20-12s-6-7-8-3c-3 6 3 15 11 20 5 2 15 4 20 3l8-2zm10-58c-5 0-9-2-9-3 2-5 29-5 29 0 0 2-12 4-20 3zm-101-19c-9-7-9-19-1-27 6-5 13-5 20-1 10 6 9 23-1 29-6 3-13 3-18-1zm195 1c-11-8-10-24 2-30 8-4 18 0 21 7 3 5 2 14-1 18-5 7-15 9-22 5z"/>
  <defs>
    <path id="B" d="M905 304h1v2l-1-2z"/>
    <path id="C" d="M905 304l1-1v2l-1-1z"/>
    <path id="D" d="M529 916h2l-1 1-1-1z"/>
    <path id="E" d="M356 706l1-1v1l-2 1v-1z"/>
    <path id="F" d="M367 670c0-2 0-3 1-2v3c-1 1-1 0-1-2z"/>
    <path id="G" d="M832 646c0-1 0-2 1-1v2c-1 1-1 0-1-1z"/>
    <path id="H" d="M878 730h2l-2 1v-1z"/>
    <path id="I" d="M263 824l1-1 1 2-2-1z"/>
    <path id="J" d="M930 853h3c1 1 0 1-2 1-1 0-2 0-1-1z"/>
    <path id="K" d="M909 888l2-2c1-1 1-1 0 0l-2 2z"/>
  </defs>
</svg>
