<?xml version="1.0" standalone="no"?>
<!DOCTYPE svg PUBLIC "-//W3C//DTD SVG 20010904//EN"
 "http://www.w3.org/TR/2001/REC-SVG-20010904/DTD/svg10.dtd">
<svg version="1.0" xmlns="http://www.w3.org/2000/svg"
 width="1001.000000pt" height="1001.000000pt" viewBox="0 0 1001.000000 1001.000000"
 preserveAspectRatio="xMidYMid meet">
<metadata>
Created by potrace 1.14, written by Peter Selinger 2001-2017
</metadata>
<g transform="translate(0.000000,1001.000000) scale(0.100000,-0.100000)"
fill="#000000" stroke="none">
<path d="M3241 8440 c-140 -20 -294 -81 -425 -169 -409 -276 -598 -798 -426
-1176 83 -183 239 -308 446 -357 l91 -22 -28 -86 c-52 -163 -70 -272 -76 -467
l-6 -183 -66 0 c-36 0 -77 -6 -91 -13 -38 -19 -70 -74 -70 -120 l0 -40 -108 7
c-116 7 -150 1 -190 -36 -31 -30 -40 -72 -31 -147 l7 -65 -52 -51 c-93 -91
-151 -232 -203 -491 -61 -306 -25 -559 114 -795 88 -149 218 -264 353 -313
l64 -23 12 -54 c7 -30 9 -57 6 -60 -4 -3 -56 -13 -117 -23 -360 -59 -554 -204
-588 -440 -36 -250 170 -623 516 -934 192 -172 376 -276 528 -297 90 -13 142
6 526 195 203 99 373 180 378 180 4 0 105 -36 224 -79 119 -43 290 -105 381
-136 131 -46 174 -65 208 -95 23 -21 68 -50 100 -65 69 -33 215 -65 299 -65
117 0 261 39 333 90 15 11 124 53 241 94 118 40 314 110 435 155 l221 82 349
-171 c388 -189 426 -202 537 -180 163 32 344 143 548 337 226 215 384 452 445
664 22 77 26 105 22 188 -3 85 -8 106 -36 163 -43 88 -136 175 -239 224 -84
39 -261 88 -362 100 l-63 7 6 49 c9 67 14 77 45 85 64 15 165 77 236 145 124
117 205 260 257 448 20 74 23 107 23 260 -1 162 -3 181 -27 255 -15 44 -38
125 -52 180 -47 187 -103 307 -164 352 -27 20 -28 25 -25 79 3 47 0 66 -17 92
-33 53 -74 64 -206 56 l-113 -7 1 36 c3 92 -50 137 -161 137 l-71 0 6 108 c11
179 -21 411 -82 591 -14 40 -23 75 -22 77 2 1 37 10 78 18 111 23 228 85 314
166 83 79 136 163 173 275 24 71 27 96 27 225 1 122 -3 159 -22 230 -125 460
-559 815 -997 814 -55 0 -127 -6 -160 -13 -187 -40 -356 -169 -439 -333 -37
-74 -76 -208 -76 -260 0 -25 -3 -27 -18 -19 -36 19 -259 92 -357 117 -478 121
-1064 85 -1502 -94 l-71 -29 -12 66 c-39 233 -168 409 -365 502 -117 55 -277
78 -414 59z m2033 -575 c398 -47 776 -191 1073 -411 237 -176 458 -433 513
-600 20 -60 22 -81 18 -223 -4 -124 -10 -170 -28 -226 -28 -90 -79 -197 -89
-190 -5 2 -12 24 -15 47 -9 59 -63 180 -114 255 -101 149 -243 268 -425 358
-171 84 -264 108 -422 109 -114 1 -136 -2 -177 -21 -57 -26 -92 -61 -125 -128
-70 -137 -76 -309 -17 -511 80 -279 269 -526 484 -634 l45 -23 -40 -14 c-83
-29 -325 -83 -461 -103 -464 -66 -1018 -30 -1404 92 l-74 24 59 33 c412 231
642 889 416 1187 -50 66 -111 95 -217 102 -252 15 -548 -107 -767 -317 -132
-127 -209 -253 -246 -405 l-17 -69 -38 77 c-60 123 -78 209 -80 366 -1 201 21
266 148 437 218 293 578 546 963 677 186 63 319 91 568 120 85 9 356 4 469 -9z
m-1026 -1189 c49 -26 75 -62 80 -114 8 -86 -49 -152 -131 -152 -80 0 -137 58
-137 139 0 102 103 171 188 127z m1637 -10 c58 -38 79 -112 50 -177 -24 -51
-69 -79 -130 -79 -41 0 -52 5 -85 38 -51 51 -59 98 -28 160 38 78 124 103 193
58z m-2816 -846 c410 -67 818 -222 1416 -538 110 -58 234 -123 275 -145 l75
-39 184 7 184 7 126 72 c208 119 439 242 556 294 392 176 842 294 1242 324 84
7 154 10 156 7 2 -2 2 -23 -1 -46 -4 -40 -6 -43 -41 -48 -243 -40 -536 -110
-825 -197 -327 -98 -598 -206 -906 -359 -308 -153 -382 -175 -548 -166 -120 6
-161 21 -282 102 -193 129 -462 253 -798 368 -349 120 -709 217 -1006 272 -77
14 -142 27 -144 29 -2 3 -6 23 -9 47 l-6 42 114 -6 c63 -4 170 -16 238 -27z
m-389 -156 c231 -30 474 -83 773 -168 390 -112 697 -226 985 -367 152 -75 182
-93 177 -107 -4 -9 -10 -27 -13 -40 -2 -13 -7 -21 -11 -19 -3 1 -71 35 -151
74 -580 284 -1396 516 -1962 558 -81 6 -88 8 -88 28 0 12 -3 33 -7 46 l-6 23
94 -6 c52 -4 146 -14 209 -22z m4940 -46 c0 -18 -4 -38 -8 -45 -5 -7 -60 -16
-142 -23 -344 -29 -800 -135 -1281 -299 -252 -85 -389 -141 -596 -241 l-183
-89 0 29 c0 16 -2 35 -5 42 -7 18 302 169 510 251 558 219 1272 393 1663 406
41 1 42 0 42 -31z m-2875 -2023 l0 -1380 -25 0 -25 0 -3 1370 c-1 754 0 1376
3 1383 3 7 15 12 27 10 l23 -3 0 -1380z m-2369 -83 c74 -26 152 -76 248 -159
75 -65 85 -77 94 -120 6 -26 9 -49 8 -51 -2 -1 -42 38 -89 88 -48 49 -91 90
-96 90 -5 0 -36 15 -68 34 -84 50 -162 70 -237 61 -112 -12 -199 -67 -237
-150 l-19 -40 0 35 c0 94 90 191 205 220 53 14 138 10 191 -8z m5499 -11 c56
-25 100 -62 121 -103 22 -42 17 -43 -20 -4 -73 78 -224 108 -339 68 -76 -27
-178 -96 -273 -185 -53 -50 -75 -65 -70 -49 3 12 8 31 11 41 15 51 215 204
315 241 72 27 183 23 255 -9z m-4888 -639 c45 -35 135 -262 147 -372 l6 -55
-19 70 c-23 85 -85 229 -134 313 -38 64 -38 74 0 44z m3999 -109 c-46 -92 -94
-230 -105 -306 l-10 -62 4 85 c5 114 78 327 117 343 28 11 27 5 -6 -60z"/>
<path d="M4879 6369 c-100 -10 -194 -42 -210 -71 -33 -62 135 -213 262 -234
l36 -6 -8 -50 c-20 -128 -133 -191 -263 -148 -40 13 -86 62 -86 90 0 11 -8 24
-18 29 -27 14 -52 -5 -52 -40 0 -117 174 -202 324 -157 24 8 61 32 91 60 l49
48 24 -30 c13 -16 45 -42 70 -58 41 -24 57 -27 132 -27 75 0 91 3 138 29 79
44 124 132 87 170 -15 15 -20 15 -39 3 -11 -8 -23 -25 -24 -38 -5 -32 -18 -47
-64 -70 -45 -23 -143 -28 -180 -9 -45 24 -79 65 -93 114 -22 75 -20 83 23 91
126 23 284 164 259 229 -22 58 -254 96 -458 75z m210 -48 c63 -17 5 -51 -89
-51 -52 0 -120 17 -120 30 0 24 146 39 209 21z"/>
</g>
</svg>
